<?xml version="1.0" encoding="utf-8"?>
<!-- Generator: Adobe Illustrator 24.1.2, SVG Export Plug-In . SVG Version: 6.00 Build 0)  -->
<svg version="1.1" id="Layer_1" xmlns="http://www.w3.org/2000/svg" xmlns:xlink="http://www.w3.org/1999/xlink" x="0px" y="0px"
	 viewBox="0 0 124.71 169.46" style="enable-background:new 0 0 124.71 169.46;" xml:space="preserve">
<style type="text/css">
	.st0{stroke:#000000;stroke-miterlimit:10;}
	.st1{fill:#FBB03B;stroke:#000000;stroke-miterlimit:10;}
	.st2{fill:#808080;stroke:#000000;stroke-miterlimit:10;}
	.st3{fill:#333333;stroke:#000000;stroke-miterlimit:10;}
	.st4{fill:#FCEE21;stroke:#000000;stroke-miterlimit:10;}
	.st5{fill:#BAE5E4;stroke:#000000;stroke-miterlimit:10;}
</style>
<g id="bee">
	<path class="st0" d="M78.43,25.85c0.88-6.05,1.75-12.1,2.63-18.15c1.57,0.62,3.28,0.19,4.15-0.96c1.16-1.53,0.43-3.79-0.97-4.89
		c-1.3-1.03-3.57-1.32-4.88,0.15c-1.19,1.33-1.09,3.55,0.37,4.89c-1.21,6.17-2.42,12.34-3.63,18.52c-1.26-0.09-2.51-0.18-3.76-0.27
		c-1.14-5.78-2.27-11.56-3.41-17.34c1.8-0.7,2.82-2.57,2.44-4.34c-0.43-2.06-2.64-3.38-4.66-2.83c-1.8,0.48-3.13,2.35-2.72,4.28
		c0.36,1.71,1.98,2.97,3.83,2.89c0.77,5.94,1.54,11.88,2.31,17.83c-8.21,1.41-13.2,9.41-11.37,16.44c0.01,0.02,0.01,0.05,0.02,0.07
		c-9.21,2.52-14.74,12.08-17.72,19.43C48,60.94,55.29,61.7,60.99,62.3c5.5,0.57,12.79,1.79,19.87,3.73
		c0.48-7.06-0.37-12.94-1.19-16.88c1.72-1.16,3.55-2.92,4.65-5.52C86.79,37.79,84.53,30.32,78.43,25.85z"/>
	<path class="st0" d="M37.27,77.55c-0.11,2.17-0.06,4.26,0.13,6.24c6.18-1.19,13.07-1.27,18.92-0.38c6.64,1,13.14,3.44,18.63,6.46
		c1.38-3.08,2.45-6.24,3.26-9.16c-6.4-4.56-13.87-8.66-22.78-8.64C48.44,72.09,42.38,74.63,37.27,77.55z"/>
	<path class="st0" d="M116.39,63.4c-1.75,0-3.22,1.08-3.64,2.55l-35.1,5.23l-0.22,2.44L113.52,69c0.69,0.74,1.71,1.21,2.87,1.21
		c2.09,0,3.78-1.53,3.78-3.41C120.17,64.93,118.48,63.4,116.39,63.4z"/>
	<path class="st1" d="M41.06,61.57c-1.84,4.58-2.7,8.3-2.85,8.95c-0.53,2.41-0.83,4.77-0.94,7.03c5.11-2.92,11.17-5.46,18.16-5.48
		c8.91-0.02,16.38,4.08,22.78,8.64c1.73-6.21,2.34-11.35,2.44-12.3c0.09-0.81,0.16-1.6,0.21-2.38c-7.08-1.94-14.37-3.16-19.87-3.73
		C55.29,61.7,48,60.94,41.06,61.57z"/>
	<path class="st1" d="M37.4,83.79c0.47,5.33,1.83,9.93,3.18,13.41c3.69-2.69,7.79-4.78,12.41-4.24c5.75,0.67,9.4,5.07,13,9.42
		c3.91-3.15,6.82-7.73,8.96-12.51c-5.49-3.02-11.99-5.46-18.63-6.46C50.47,82.52,43.58,82.6,37.4,83.79z"/>
	<g>
		<path class="st2" d="M52.79,144.09c-0.18,0.16-0.34,0.31-0.47,0.42c1.93,8.15,3.85,16.3,5.78,24.44
			c6.52-0.07,13.04-0.15,19.56-0.22c1.61-8.67,3.22-17.34,4.82-26.01c-4.23,1.96-9.32,3.45-14.6,3.68
			C62.62,146.63,57.16,145.61,52.79,144.09z"/>
		<path class="st3" d="M82.59,142.11c-0.09,0.52-0.02,0.09-0.11,0.61c-4.23,1.96-9.33,3.45-14.61,3.68
			c-5.24,0.22-10.7-0.79-15.08-2.32c2.07-1.82,7.59-6.07,15.75-6.46C75.54,137.29,80.54,140.9,82.59,142.11z"/>
	</g>
	<path class="st4" d="M52.98,144.29c-0.85,1.39,0.68,4.34,2.67,5.56c1.78,1.09,4.05,0.85,4.78,0.78c0.69-0.07,1.26-0.21,1.67-0.33
		c0.26,6.67,1.32,11.65,2.78,11.78c1.47,0.13,3.43-4.64,4.89-11.33c0.66,2.06,1.84,4.8,3.78,5.11c4.37,0.7,10.91-11.21,8.67-13.67
		c-1.42-1.55-4.95,2.17-13.11,2.89C60,145.87,54.29,142.13,52.98,144.29z"/>
	<path class="st0" d="M74.94,128.96c-0.02-0.01-0.04-0.02-0.05-0.04c1.2-0.57,2.03-1.69,2.03-3c0-1.14-0.63-2.14-1.58-2.76
		l13.21-15.54L72.98,85.85l-2.67,5.11l15.11,15.33l-11.76,16.27c-0.18-0.02-0.35-0.05-0.53-0.05c-2.09,0-3.78,1.53-3.78,3.41
		c0,0.14,0.03,0.27,0.05,0.4c-1.68-0.38-3.41-0.43-5.07-0.11c-0.31,0.06-0.61,0.15-0.92,0.24c-0.46-1.42-1.89-2.46-3.61-2.46
		c-0.86,0-1.65,0.27-2.28,0.71l-8.76-7.75l2.85-10.63c3.1,0.42,5.57,0.1,7.38-0.37c2.63-0.69,4.96-1.94,7-3.58
		c-3.6-4.35-7.25-8.75-13-9.42c-4.62-0.54-8.72,1.55-12.41,4.24c0.79,2.03,1.57,3.67,2.18,4.87c-1.74,2.78-3.48,5.56-5.22,8.34
		c3.08-1.74,6.15-3.48,9.22-5.23c1.11,0.38,2.15,0.64,3.14,0.85l-3.58,10.93l9.87,9.5c-0.1,0.3-0.17,0.62-0.17,0.95
		c0,1.18,0.67,2.22,1.68,2.83c-3.07,3.49-4.72,8.63-3.95,13.38l1.97-2.32c-0.7-4.26,0.85-8.07,3.67-10.52
		c0.13,0.01,0.26,0.04,0.4,0.04c1.64,0,3.02-0.95,3.54-2.26c0.45-0.15,0.9-0.27,1.37-0.37c3.03-0.6,6.3,0.26,8.99,2.36
		c2.93,2.28,4.73,5.73,4.93,9.46l2,0.89C80.4,136.58,78.33,131.6,74.94,128.96z"/>
	<path class="st5" d="M65.95,65.77c8.43,10.71,49.46,4.62,56.89-18.37c2.7-8.35,1.68-21.13-5.33-24.89
		c-14.23-7.63-45.35,26.08-53.33,34.96C63.86,60.32,64.1,63.42,65.95,65.77z"/>
	<path class="st5" d="M54.54,54.29C46.36,26.16,28.13,11.6,15.65,14.51c-8.74,2.04-15.74,12.9-15.11,22
		c1.25,18.17,33.02,31.44,48.44,22.67C51.65,57.67,53.44,55.71,54.54,54.29z"/>
</g>
</svg>
