<?xml version="1.0" encoding="utf-8"?>
<!-- Generator: Adobe Illustrator 24.1.2, SVG Export Plug-In . SVG Version: 6.00 Build 0)  -->
<svg version="1.1" id="Layer_1" xmlns="http://www.w3.org/2000/svg" xmlns:xlink="http://www.w3.org/1999/xlink" x="0px" y="0px"
	 viewBox="0 0 104.4 108.64" style="enable-background:new 0 0 104.4 108.64;" xml:space="preserve">
<style type="text/css">
	.st0{fill:none;}
	.st1{fill:#FBB03B;}
	.st2{fill:#42210B;}
	.st3{fill:#754C24;}
</style>
<g>
	<path class="st0" d="M47.16,67.17c0.32,0.05,0.64,0.08,0.96,0.12c-0.76-0.1-1.52-0.21-2.28-0.32
		C46.28,67.04,46.72,67.11,47.16,67.17z"/>
	<path class="st0" d="M74.26,90.45c8.12-0.24,16.23-1.17,24.19-2.8C90.49,89.29,82.39,90.21,74.26,90.45z"/>
	<path class="st0" d="M50.74,34.79c1.08,2.72,1.72,5.62,1.89,8.52C52.53,40.41,51.91,37.52,50.74,34.79z"/>
	<path class="st0" d="M44.04,63.22c2.62-2.24,4.7-5.02,6.15-8.11C48.7,58.18,46.59,60.96,44.04,63.22z"/>
	<path class="st0" d="M48.19,29.97c-1.23-1.82-2.72-3.46-4.46-4.76C45.47,26.56,46.95,28.18,48.19,29.97z"/>
	<path class="st0" d="M39.77,23.08C39.77,23.08,39.77,23.08,39.77,23.08c0.24,0.09,0.48,0.19,0.73,0.28
		C40.26,23.27,40.02,23.17,39.77,23.08z"/>
	<path class="st0" d="M44.06,67.2c0.34,0.08,0.7,0.11,1.05,0.17C44.76,67.32,44.41,67.26,44.06,67.2z"/>
	<path class="st0" d="M37.31,65.47c0.89,0.18,1.78,0.36,2.67,0.52c0,0,0,0,0,0c0,0,0,0,0,0C39.09,65.83,38.19,65.65,37.31,65.47z"/>
	<path class="st0" d="M29.8,59.61c1.37,2.08,3,3.9,4.87,5.29C32.77,63.39,31.15,61.6,29.8,59.61z"/>
	<path class="st0" d="M27.56,34.48c-0.73,1.49-1.31,3.05-1.69,4.66c-0.55,2.41-0.69,4.96-0.47,7.5
		C25.11,42.49,25.8,38.28,27.56,34.48z"/>
	<path class="st0" d="M40.76,66.13c-0.04,0-0.09-0.01-0.13-0.02C40.64,66.11,40.76,66.16,40.76,66.13z"/>
	<path class="st0" d="M18.59,12.57c12.8,0.96,45.54,3.27,69.49,4.97C64.32,15.84,32.88,13.59,18.59,12.57z"/>
	<path class="st0" d="M2.39,19.2c-0.11,0.2-0.2,0.42-0.3,0.63c0.21-0.46,0.46-0.91,0.73-1.34C2.68,18.73,2.52,18.96,2.39,19.2z"/>
	<path class="st0" d="M12.69,12.34C8.67,12.8,5.02,15,2.91,18.35C4.95,15.15,8.45,12.87,12.69,12.34z"/>
	<path class="st0" d="M33.71,21.62c-3.42,0.53-6.52,2.21-9.14,4.54C27.24,23.82,30.41,22.15,33.71,21.62z"/>
	<path class="st0" d="M54.9,42.08c1.74,0.12,3.47,0.23,5.25,0.31c0.27,0.01,0.55,0.02,0.82,0.03c-2.02-0.09-4.04-0.2-6.06-0.34
		C54.91,42.08,54.91,42.08,54.9,42.08z"/>
	<path class="st0" d="M53.46,41.15c0.08,0.4,0.34,0.7,0.69,0.83C53.79,41.83,53.58,41.53,53.46,41.15z"/>
	<path class="st0" d="M17.4,37.03c0.14-0.42,0.3-0.85,0.46-1.27c-0.01,0.02-0.02,0.04-0.02,0.06C17.68,36.23,17.55,36.63,17.4,37.03
		z"/>
	<path class="st0" d="M52.37,36.43c0.38,1.19,0.65,2.41,0.87,3.63c-0.07-0.55-0.12-1.1-0.29-1.55
		C52.79,37.81,52.59,37.12,52.37,36.43z"/>
	<path class="st0" d="M36.22,21.44c0.09,0,0.18,0,0.27,0c-0.03,0-0.07-0.01-0.1-0.01C36.33,21.43,36.28,21.44,36.22,21.44z"/>
	<path class="st0" d="M44.25,24.37c1.86,1.41,3.43,3.13,4.74,5.04c-0.09-0.13-0.18-0.27-0.27-0.4
		C47.49,27.27,45.98,25.65,44.25,24.37z"/>
	<path class="st0" d="M73.93,43.72c3.04,0,6.08-0.05,9.12-0.14C80.02,43.68,76.97,43.72,73.93,43.72c-4.32,0-8.64-0.1-12.95-0.3
		C63.93,43.6,68.08,43.77,73.93,43.72z"/>
	<path class="st0" d="M51.39,54.89c-0.06,0.12-0.11,0.25-0.17,0.37c0.03-0.06,0.07-0.13,0.09-0.19
		C51.34,55.01,51.36,54.95,51.39,54.89z"/>
	<path class="st0" d="M55.07,43.08c-0.38-0.02-0.75,0.02-1.05,0.3c-0.23,0.21-0.35,0.5-0.35,0.81c0.02,1.19-0.03,2.31-0.17,3.42
		C53.98,44.13,53.19,43.17,55.07,43.08z"/>
	<path class="st0" d="M84.57,43.03c2.49-0.09,4.94-0.21,7.32-0.37C89.5,42.81,87.06,42.93,84.57,43.03z"/>
	<path class="st0" d="M89.16,42.31c0.63-0.03,1.27-0.08,1.9-0.11c-0.89,0.05-1.77,0.1-2.66,0.15
		C88.66,42.33,88.91,42.33,89.16,42.31z"/>
	<path class="st0" d="M19.95,58.43c-0.09-0.17-0.19-0.34-0.28-0.51c0.03,0.06,0.06,0.12,0.09,0.18
		C19.82,58.21,19.88,58.31,19.95,58.43z"/>
	<path class="st0" d="M20.25,58.98c-0.03-0.06-0.06-0.12-0.09-0.17c0.14,0.28,0.24,0.57,0.22,0.84
		C20.41,59.43,20.38,59.2,20.25,58.98z"/>
	<path class="st0" d="M16.31,44.02c0-0.23,0-0.46,0.01-0.69c0,0.06-0.01,0.11-0.01,0.17C16.31,43.67,16.32,43.84,16.31,44.02z"/>
	<path class="st0" d="M3.7,41.55c-0.14,0.76-0.23,1.57-0.25,2.43c0,0,0,0.01,0,0.01c0,0,0-0.01,0-0.01
		C3.47,43.13,3.56,42.31,3.7,41.55z"/>
	<path class="st0" d="M38.07,22.64c-0.01,0-0.02,0-0.02,0c-0.41,0.18-0.81,0.37-1.21,0.58C37.24,23.01,37.65,22.82,38.07,22.64z"/>
	<path class="st0" d="M16.84,39.13c-0.06,0.29-0.1,0.59-0.15,0.88C16.77,39.72,16.82,39.42,16.84,39.13z"/>
	<path class="st0" d="M6.35,53.37c-0.78-1.12-1.7-2.76-2.3-4.82C4.63,50.6,5.52,52.21,6.35,53.37z"/>
	<path class="st0" d="M7.4,54.68c0.26,0.18,0.53,0.35,0.79,0.53c-0.3-0.22-0.6-0.43-0.9-0.65C7.33,54.6,7.37,54.65,7.4,54.68z"/>
	<path class="st0" d="M31.5,23.14c-0.06,0.02-0.11,0.04-0.17,0.07c0.38-0.13,0.77-0.25,1.17-0.35
		C32.17,22.94,31.83,23.03,31.5,23.14z"/>
	<path class="st0" d="M25.02,27.07c0.75-0.67,1.55-1.29,2.39-1.86C26.57,25.77,25.77,26.39,25.02,27.07z"/>
	<path class="st0" d="M26.25,34.8c0.61-1.38,1.35-2.7,2.27-3.92c0.57-0.86,1.22-1.68,1.9-2.46c-0.15,0.17-0.3,0.35-0.45,0.52
		C28.37,30.68,27.15,32.67,26.25,34.8z"/>
	<path class="st0" d="M26.06,54.32c1.37,3.85,3.53,7.33,6.35,9.97C29.61,61.67,27.44,58.17,26.06,54.32z"/>
	<path class="st0" d="M34.88,25.61c-0.06,0.04-0.11,0.09-0.17,0.14c0.12-0.09,0.25-0.19,0.37-0.28
		C35.02,25.52,34.95,25.56,34.88,25.61z"/>
	<path class="st0" d="M32.29,67.35c0.24,0.04,0.47,0.09,0.71,0.12c1.02,0.1,2.11,0.02,3.19-0.18
		C34.84,67.54,33.54,67.55,32.29,67.35z"/>
	<path class="st0" d="M18.42,37.13c-0.33,1-0.55,2.02-0.74,3.04c0.45-2.34,1.24-4.6,2.36-6.7C19.41,34.66,18.86,35.88,18.42,37.13z"
		/>
	<path class="st0" d="M38.35,66.7c-0.01,0-0.01,0-0.02,0c-0.72,0.26-1.43,0.45-2.12,0.59C36.94,67.15,37.65,66.96,38.35,66.7z"/>
	<path class="st0" d="M24.46,62.96c-0.91-0.95-1.75-2.01-2.5-3.14C22.7,60.95,23.53,62,24.46,62.96z"/>
	<path class="st0" d="M2.55,31.27c-0.84-1.66-1.33-3.33-1.5-4.95C1.2,28.07,1.68,29.79,2.55,31.27z"/>
	<path class="st1" d="M16.6,10.45c0.48,0.36,0.99,0.73,1.47,1.1c0,0,64.12,4.57,86.33,6.16V0H16.54
		C15.25,3.27,15.25,7.04,16.6,10.45z"/>
	<path class="st1" d="M88.08,17.54c-23.96-1.7-56.7-4.01-69.49-4.97c-0.69-0.05-1.34-0.1-1.95-0.14c-1.33-0.23-2.66-0.25-3.95-0.1
		c-4.24,0.53-7.74,2.81-9.78,6.01c-0.03,0.05-0.06,0.1-0.09,0.15c-0.27,0.43-0.51,0.88-0.73,1.34c-0.01,0.02-0.02,0.03-0.02,0.05
		C2.03,19.97,2,20.06,1.96,20.15c-0.71,1.76-1.05,3.8-0.94,5.81c0.01,0.09,0.01,0.19,0.02,0.28c0,0.03,0.01,0.05,0.01,0.08
		c0.17,1.62,0.66,3.29,1.5,4.95c0.3,0.51,0.65,0.99,1.04,1.44c2,0.89,4.19,1.81,6.51,2.72c1.15,0.28,2.29,0.53,3.43,0.78
		c0.5,0.11,1,0.21,1.49,0.32c0.79,0.17,1.59,0.34,2.38,0.5c0.15-0.4,0.28-0.81,0.44-1.21c0.01-0.02,0.02-0.04,0.02-0.06
		c0.21-0.51,0.44-1.02,0.68-1.52c0.14-0.29,0.27-0.57,0.42-0.85c0.08-0.15,0.16-0.29,0.24-0.43c0.2-0.36,0.38-0.73,0.6-1.08
		c1.09-1.85,2.47-3.57,4.04-5.07c0.09-0.09,0.18-0.17,0.27-0.25c0.15-0.14,0.3-0.28,0.46-0.41c2.61-2.33,5.72-4.01,9.14-4.54
		c0.3-0.05,0.59-0.09,0.89-0.12c0.12-0.01,0.23-0.02,0.35-0.03c0.42-0.03,0.84-0.04,1.27-0.03c0.06,0,0.12-0.01,0.18,0
		c0.03,0,0.07,0.01,0.1,0.01c2.6,0.11,5.22,0.99,7.68,2.86c0.03,0.02,0.05,0.04,0.07,0.06c1.73,1.29,3.25,2.9,4.48,4.65
		c0.09,0.13,0.18,0.27,0.27,0.4c0.1,0.15,0.21,0.3,0.31,0.46c0.35,0.54,0.68,1.1,0.99,1.66c0.09,0.16,0.17,0.32,0.25,0.48
		c0.31,0.59,0.59,1.19,0.86,1.81c0.06,0.13,0.11,0.26,0.16,0.39c0.27,0.66,0.52,1.33,0.74,2.01c0.02,0.07,0.04,0.14,0.07,0.21
		c0.22,0.69,0.42,1.38,0.58,2.08c0.17,0.44,0.22,1,0.29,1.55c0.06,0.32,0.13,0.63,0.18,0.95c0.01,0.05,0.02,0.1,0.04,0.14
		c0.13,0.38,0.34,0.68,0.69,0.83c0.09,0.03,0.18,0.06,0.28,0.07c0.16,0.01,0.31,0.02,0.47,0.03c0,0,0.01,0,0.01,0
		c2.02,0.14,4.04,0.25,6.06,0.34c1.9,0.09,3.8,0.15,5.71,0.2c0.59,0.02,1.19,0.02,1.78,0.04c1.72,0.03,3.45,0.05,5.17,0.05
		c0.51,0,1.03,0,1.54,0c2.2-0.01,4.4-0.04,6.6-0.1c0.22-0.01,0.44-0.02,0.66-0.02c1.99-0.06,3.97-0.14,5.96-0.24
		c0.89-0.05,1.77-0.09,2.66-0.15c0.5-0.03,0.99-0.06,1.49-0.09c1.73-0.11,3.45-0.24,5.18-0.39c1.77-0.15,3.54-0.32,5.31-0.5
		c0.45-0.05,0.9-0.09,1.35-0.14V18.71C99.74,18.38,94.16,17.98,88.08,17.54z"/>
	<path class="st1" d="M73.93,43.72c-5.86,0.05-10-0.12-12.95-0.3c-1.61-0.07-3.22-0.16-4.82-0.26c-0.35,0.02-0.73-0.06-1.09-0.08
		c-1.88,0.09-1.09,1.04-1.56,4.53c-0.01,0.05-0.01,0.1-0.02,0.15c-0.02,0.11-0.03,0.23-0.05,0.35c-0.03,0.22-0.06,0.44-0.1,0.66
		c-0.38,2.11-1.05,4.17-1.95,6.12c-0.03,0.06-0.05,0.12-0.07,0.18c-0.03,0.06-0.06,0.13-0.09,0.19c-0.13,0.27-0.26,0.53-0.4,0.8
		c-0.1,0.2-0.2,0.39-0.3,0.58c-0.13,0.23-0.26,0.46-0.4,0.7c-0.12,0.2-0.23,0.4-0.35,0.6c-0.27,0.44-0.55,0.87-0.84,1.3
		c-0.12,0.17-0.25,0.33-0.37,0.5c-0.2,0.27-0.39,0.54-0.6,0.8c-0.08,0.11-0.17,0.21-0.26,0.31c-0.25,0.31-0.5,0.61-0.77,0.91
		c-0.16,0.18-0.33,0.35-0.49,0.53c-0.19,0.2-0.39,0.41-0.59,0.61c-0.19,0.19-0.39,0.37-0.59,0.56c-0.24,0.22-0.48,0.44-0.73,0.65
		c-0.06,0.05-0.12,0.12-0.19,0.17c-0.21,0.18-0.42,0.35-0.63,0.52c-0.75,0.64-0.43,1.72,0.42,1.93c0.57,0.1,1.14,0.18,1.71,0.26
		c0.76,0.11,1.52,0.22,2.28,0.32c0.74,0.1,1.48,0.2,2.22,0.29c0.58,0.07,1.15,0.14,1.73,0.2c0.79,0.09,1.58,0.17,2.37,0.25
		c0.55,0.05,1.11,0.1,1.66,0.15c0.79,0.07,1.58,0.13,2.38,0.19c0.58,0.04,1.15,0.08,1.73,0.11c0.76,0.05,1.52,0.09,2.28,0.12
		c0.63,0.03,1.26,0.05,1.89,0.07c0.7,0.02,1.41,0.05,2.11,0.06c0.71,0.01,1.42,0.02,2.13,0.03c0.62,0,1.25,0.01,1.87,0.01
		c0.81,0,1.62-0.02,2.43-0.03c0.52-0.01,1.05-0.02,1.57-0.03c0.93-0.03,1.85-0.07,2.78-0.11c0.41-0.02,0.82-0.03,1.23-0.06
		c1.05-0.06,2.1-0.13,3.14-0.21c0.3-0.02,0.59-0.04,0.89-0.06c1.16-0.09,2.31-0.2,3.46-0.31c0.2-0.02,0.4-0.04,0.59-0.06
		c1.23-0.13,2.47-0.27,3.7-0.43c0.13-0.02,0.25-0.03,0.38-0.05c1.24-0.16,2.48-0.34,3.72-0.53c0.13-0.02,0.26-0.04,0.38-0.06
		c1.12-0.17,2.24-0.37,3.36-0.57c0.25-0.04,0.5-0.08,0.76-0.13c0.72-0.13,1.43-0.28,2.15-0.42c1.12-0.22,2.23-0.47,3.35-0.71V42.09
		c-7.09,0.76-14.21,1.26-21.34,1.49C80.02,43.68,76.97,43.72,73.93,43.72z"/>
	<path class="st1" d="M16.15,59.6c0.83,0.29,1.67,0.57,2.5,0.86c0.1,0.06,0.22,0.08,0.33,0.11c0.06,0.02,0.11,0.02,0.17,0.03
		c0.11,0.01,0.22,0.01,0.33,0c0.01,0,0.02,0,0.03-0.01c0.1-0.02,0.2-0.06,0.29-0.1c0.04-0.02,0.08-0.03,0.11-0.06
		c0.09-0.06,0.18-0.13,0.24-0.22c0.12-0.14,0.22-0.33,0.25-0.55c0.02-0.27-0.08-0.56-0.22-0.84c-0.07-0.13-0.14-0.26-0.21-0.39
		c-0.06-0.11-0.13-0.22-0.19-0.32c-0.03-0.06-0.06-0.12-0.09-0.18c-0.53-1-0.99-2.04-1.4-3.1c-0.06-0.17-0.12-0.33-0.18-0.5
		c-0.14-0.37-0.26-0.75-0.39-1.13c-0.06-0.19-0.12-0.38-0.18-0.58c-0.13-0.44-0.25-0.88-0.36-1.33c-0.03-0.11-0.06-0.21-0.08-0.32
		c-0.13-0.56-0.25-1.13-0.35-1.71c-0.02-0.09-0.03-0.19-0.05-0.28c-0.05-0.29-0.1-0.59-0.14-0.88c-0.02-0.19-0.04-0.37-0.06-0.56
		c-0.02-0.21-0.04-0.42-0.06-0.62c-0.03-0.34-0.05-0.69-0.07-1.03c-0.01-0.27-0.03-0.54-0.04-0.81c-0.01-0.35-0.01-0.71,0-1.06
		c0-0.18-0.01-0.35,0-0.53c0-0.06,0.01-0.11,0.01-0.17c0.03-0.65,0.07-1.3,0.15-1.94c-0.01-0.45,0.11-0.91,0.22-1.37
		c0.05-0.29,0.09-0.59,0.15-0.88c0.02-0.31-0.01-0.61-0.14-0.89c-0.16-0.25-0.41-0.42-0.7-0.48c-1.33-0.28-2.68-0.57-4.04-0.87
		c-0.15-0.03-0.3-0.07-0.46-0.1c-0.05-0.01-0.1-0.02-0.15-0.03c-1.48-0.33-2.98-0.68-4.43-1.03c-0.47-0.11-0.95,0.08-1.19,0.49
		c-0.75,1.24-1.62,3.06-2.04,5.34c-0.14,0.76-0.23,1.57-0.25,2.43c0,0,0,0.01,0,0.01c-0.01,1.7,0.22,3.22,0.6,4.56
		c0.59,2.06,1.52,3.7,2.3,4.82c0.34,0.47,0.66,0.87,0.95,1.19c0.3,0.23,0.6,0.44,0.9,0.65c1.73,1.19,3.46,2.31,5.27,3.39
		C14.35,58.96,15.24,59.28,16.15,59.6z"/>
	<path class="st1" d="M59.92,69.47c-6.53-0.41-13.04-1.21-19.47-2.38c-0.77-0.04-1.46,0.53-2.21,0.7c-2.75,0.95-5.8,1-8.52-0.06
		c-1.77-0.66-3.39-1.71-4.81-2.96c-0.76-0.56-1.32-1.51-2.15-1.96c-2.85-0.86-5.84-1.86-8.64-2.88l-1.68,0.52
		c-1.3,1.93-3.18,5.73-2.01,10.4c2.62,8.34,8.74,8.82,13.4,10.79c9.31,3.26,18.96,5.54,28.75,6.78c17.27,2.2,34.94,1.12,51.82-3.16
		V66.05c-2.29,0.5-4.58,0.94-6.89,1.34C85.11,69.55,72.48,70.23,59.92,69.47z"/>
	<path class="st1" d="M74.26,90.45c-3.68,0.11-7.36,0.09-11.03-0.09c-12.69-0.62-25.28-2.97-37.34-6.96c0,0-1.7,1.62-1.7,1.62
		c4.99,18.53,25.48,22.06,37.79,22.45c5.64,0.73,33.36,0.75,42.42-12.59v-8.59c-1.98,0.5-3.95,0.95-5.95,1.36
		C90.49,89.29,82.39,90.21,74.26,90.45z"/>
	<path d="M61.98,107.47c-12.31-0.39-32.8-3.92-37.79-22.45c0,0,1.7-1.62,1.7-1.62c12.06,3.99,24.65,6.34,37.34,6.96
		c3.67,0.18,7.35,0.2,11.03,0.09c8.12-0.24,16.23-1.17,24.19-2.8c1.99-0.41,3.97-0.86,5.95-1.36v-1.03
		c-16.87,4.27-34.54,5.36-51.82,3.16c-9.79-1.24-19.44-3.52-28.75-6.78c-4.66-1.97-10.78-2.45-13.4-10.79
		c-1.17-4.67,0.71-8.47,2.01-10.4l1.68-0.52c2.8,1.02,5.79,2.02,8.64,2.88c0.83,0.45,1.39,1.4,2.15,1.96
		c1.42,1.25,3.04,2.3,4.81,2.96c2.72,1.06,5.77,1.01,8.52,0.06c0.75-0.17,1.44-0.74,2.21-0.7c6.43,1.17,12.94,1.97,19.47,2.38
		c12.56,0.76,25.19,0.07,37.59-2.08c2.3-0.4,4.6-0.85,6.89-1.34v-1.04c-1.11,0.24-2.23,0.49-3.35,0.71
		c-0.72,0.14-1.43,0.29-2.15,0.42c-0.25,0.05-0.5,0.08-0.76,0.13c-1.12,0.2-2.24,0.39-3.36,0.57c-0.13,0.02-0.26,0.04-0.38,0.06
		c-1.24,0.19-2.48,0.37-3.72,0.53c-0.13,0.02-0.25,0.03-0.38,0.05c-1.23,0.16-2.46,0.3-3.7,0.43c-0.2,0.02-0.4,0.04-0.59,0.06
		c-1.15,0.12-2.31,0.22-3.46,0.31c-0.3,0.02-0.59,0.04-0.89,0.06c-1.05,0.08-2.1,0.15-3.14,0.21c-0.41,0.02-0.82,0.04-1.23,0.06
		c-0.93,0.04-1.85,0.08-2.78,0.11c-0.52,0.02-1.05,0.02-1.57,0.03c-0.81,0.02-1.62,0.03-2.43,0.03c-0.62,0-1.25,0-1.87-0.01
		c-0.71-0.01-1.42-0.01-2.13-0.03c-0.7-0.01-1.41-0.04-2.11-0.06c-0.63-0.02-1.26-0.04-1.89-0.07c-0.76-0.03-1.52-0.08-2.28-0.12
		c-0.58-0.03-1.15-0.07-1.73-0.11c-0.79-0.06-1.59-0.12-2.38-0.19c-0.55-0.05-1.11-0.1-1.66-0.15c-0.79-0.08-1.58-0.16-2.37-0.25
		c-0.58-0.06-1.15-0.13-1.73-0.2c-0.74-0.09-1.48-0.19-2.22-0.29c-0.32-0.04-0.64-0.08-0.96-0.12c-0.44-0.06-0.88-0.14-1.32-0.2
		c-0.23-0.04-0.47-0.06-0.7-0.1c-0.34-0.05-0.68-0.09-1.01-0.16c-0.85-0.21-1.17-1.29-0.42-1.93c0.28-0.22,0.55-0.46,0.82-0.69
		c0.25-0.21,0.49-0.43,0.73-0.65c0.2-0.18,0.39-0.37,0.59-0.56c0.2-0.2,0.39-0.4,0.59-0.61c0.17-0.18,0.33-0.35,0.49-0.53
		c0.26-0.3,0.52-0.6,0.77-0.91c0.08-0.1,0.17-0.2,0.26-0.31c0.21-0.26,0.4-0.53,0.6-0.8c0.43-0.58,0.84-1.18,1.22-1.8
		c0.12-0.2,0.23-0.4,0.35-0.6c0.13-0.23,0.27-0.46,0.4-0.7c0.1-0.19,0.2-0.39,0.3-0.58c0.14-0.26,0.27-0.53,0.4-0.8
		c0.06-0.12,0.11-0.25,0.17-0.37c1.21-2.89,1.78-5.1,2.05-6.78c0.02-0.12,0.04-0.23,0.05-0.35c0.01-0.05,0.02-0.1,0.02-0.15
		c0.14-1.11,0.19-2.24,0.17-3.42c0-0.31,0.12-0.6,0.35-0.81c0.29-0.28,0.66-0.32,1.05-0.3c1.01-0.05,2.78,0.15,5.92,0.34
		c4.31,0.2,8.62,0.3,12.95,0.3c3.04,0,6.08-0.05,9.12-0.14c7.13-0.23,14.25-0.73,21.34-1.49v-1.01c-0.45,0.05-0.9,0.1-1.35,0.14
		c-1.77,0.18-3.54,0.35-5.31,0.5c-0.1,0.01-0.21,0.02-0.31,0.03c-1.62,0.13-3.24,0.25-4.87,0.36c-0.5,0.03-0.99,0.06-1.49,0.09
		c-0.63,0.04-1.27,0.08-1.9,0.11c-0.25,0.01-0.5,0.02-0.76,0.03c-1.98,0.1-3.97,0.18-5.96,0.24c-0.22,0.01-0.44,0.02-0.66,0.02
		c-2.2,0.06-4.4,0.09-6.6,0.1c-0.51,0-1.03,0-1.54,0c-1.72,0-3.45-0.02-5.17-0.05c-0.59-0.01-1.19-0.02-1.78-0.04
		c-1.9-0.05-3.81-0.12-5.71-0.2c-0.27-0.01-0.55-0.02-0.82-0.03c-1.78-0.08-3.51-0.19-5.25-0.31c-0.31,0.02-0.55-0.02-0.75-0.1
		c-0.35-0.13-0.61-0.43-0.69-0.83c-0.01-0.03-0.02-0.05-0.02-0.08c0-0.02-0.01-0.04-0.01-0.07c-0.05-0.32-0.12-0.63-0.18-0.95
		c-0.22-1.22-0.5-2.44-0.87-3.63c-0.02-0.07-0.04-0.14-0.07-0.21c-0.22-0.68-0.47-1.35-0.74-2.01c-0.05-0.13-0.11-0.26-0.16-0.39
		c-0.26-0.61-0.55-1.22-0.86-1.81c-0.08-0.16-0.17-0.32-0.25-0.48c-0.31-0.57-0.64-1.12-0.99-1.66c-0.1-0.16-0.21-0.31-0.31-0.46
		c-1.31-1.91-2.89-3.63-4.74-5.04c-2.26-1.68-4.89-2.8-7.75-2.93c-0.09,0-0.18,0-0.27,0c-0.42-0.01-0.85,0-1.27,0.03
		c-0.12,0.01-0.23,0.02-0.35,0.03c-0.3,0.03-0.6,0.07-0.89,0.12c-3.3,0.54-6.46,2.2-9.14,4.54c-0.15,0.13-0.3,0.27-0.46,0.41
		c-0.09,0.08-0.18,0.17-0.27,0.25c-1.85,1.8-3.41,3.91-4.64,6.15c-0.08,0.14-0.16,0.29-0.24,0.43c-0.15,0.28-0.28,0.56-0.42,0.85
		c-0.24,0.5-0.47,1.01-0.68,1.52c-0.17,0.42-0.32,0.84-0.46,1.27c-0.4-0.08-0.8-0.16-1.2-0.25c-0.39-0.08-0.79-0.17-1.18-0.25
		c-0.5-0.11-0.99-0.21-1.49-0.32c-1.14-0.25-2.28-0.5-3.43-0.78c-2.32-0.91-4.51-1.83-6.51-2.72c-0.2-0.09-0.37-0.24-0.48-0.42
		c-0.2-0.34-0.39-0.68-0.56-1.02c-0.87-1.48-1.36-3.2-1.5-4.95c0-0.03-0.01-0.05-0.01-0.08c-0.01-0.09-0.01-0.19-0.02-0.28
		c-0.16-2.06,0.18-4.03,0.94-5.81c0.04-0.09,0.07-0.18,0.11-0.26c0.01-0.02,0.02-0.03,0.02-0.05c0.09-0.21,0.19-0.43,0.3-0.63
		c0.13-0.25,0.29-0.47,0.43-0.71c0.03-0.05,0.06-0.1,0.09-0.15c2.11-3.35,5.76-5.55,9.78-6.01c1.57-0.2,3.25-0.16,4.99,0.17
		c0.29,0.02,0.59,0.04,0.91,0.07c14.29,1.02,45.73,3.27,69.49,4.97c6.19,0.44,11.79,0.84,16.31,1.16v-0.99
		c-22.2-1.58-86.32-6.16-86.33-6.16c-0.48-0.37-0.99-0.74-1.47-1.1C15.25,7.04,15.25,3.27,16.54,0h-1.08
		c-1.2,3.16-1.32,6.91,0.28,10.96c0,0,0.05,0.13,0.05,0.13c0.12,0.09,0.24,0.17,0.36,0.27c-6-0.76-11.96,2.21-14.63,7.38
		c-2.26,4.35-1.97,9.75,0.75,14.08c0.86,1.15,2.42,1.32,3.69,2c-0.44,0.15-0.82,0.45-1.07,0.87c-1.06,1.76-2.35,4.62-2.43,8.27
		C2.48,50,5.1,53.71,6.83,55.5c1.94,1.36,3.87,2.61,5.89,3.82l-0.91,0.28l-0.09,0.14c-5.79,8.15-1.31,17.91,6.04,20.69
		c2.11,0.84,4.68,1.81,7.06,2.6l-1.76,1.68c4.95,19.52,25.87,23.35,38.86,23.76c11.9,0.67,33.42-0.16,42.48-12.15v-1.44
		C95.34,108.22,67.62,108.21,61.98,107.47z M45.11,67.37c-0.35-0.06-0.71-0.09-1.05-0.17C44.41,67.26,44.76,67.32,45.11,67.37z
		 M91.89,42.66c-2.38,0.16-4.83,0.28-7.32,0.37C87.06,42.93,89.5,42.81,91.89,42.66z M40.63,66.11c0.04,0.01,0.09,0.02,0.13,0.02
		C40.76,66.16,40.64,66.11,40.63,66.11z M39.46,23.2c0.1-0.04,0.2-0.08,0.3-0.11c0,0,0,0,0,0c0,0,0,0,0.01,0
		c0.25,0.09,0.49,0.18,0.73,0.28c0.62,0.25,1.22,0.55,1.8,0.9c0.09,0.05,0.18,0.1,0.27,0.16c0.15,0.1,0.31,0.2,0.46,0.3
		c0.19,0.13,0.38,0.26,0.56,0.39c0.03,0.02,0.06,0.04,0.09,0.06c0.02,0.01,0.04,0.03,0.05,0.04c1.74,1.3,3.23,2.94,4.46,4.76
		c0.92,1.34,1.69,2.78,2.33,4.29c0,0.01,0.01,0.02,0.02,0.03c0.07,0.16,0.14,0.33,0.21,0.5c1.17,2.73,1.79,5.62,1.89,8.52
		c0.03,0.46,0.04,0.92,0.05,1.38c0,3.62-0.91,7.18-2.49,10.42c-1.46,3.08-3.53,5.87-6.15,8.11c-0.01,0.01-0.02,0.02-0.03,0.03
		c-0.01,0.01-0.02,0.02-0.03,0.02c-0.14,0.12-0.28,0.23-0.43,0.35c-1.11,0.92-2.32,1.75-3.58,2.37c0,0,0,0,0,0
		c-0.89-0.17-1.78-0.34-2.67-0.52c-0.89-0.18-1.77-0.37-2.63-0.57c-1.87-1.39-3.5-3.21-4.87-5.29c-2.59-3.82-4.1-8.36-4.41-12.97
		c-0.21-2.55-0.08-5.09,0.47-7.5c0.38-1.61,0.97-3.17,1.69-4.66c1.45-3.13,3.61-5.98,6.55-8.28c0.2-0.16,0.41-0.3,0.61-0.46
		c0.06-0.04,0.11-0.09,0.17-0.14c0.07-0.05,0.14-0.09,0.21-0.14c0.2-0.14,0.39-0.27,0.59-0.41c0.28-0.18,0.57-0.36,0.86-0.53
		c0.13-0.08,0.27-0.16,0.4-0.23c0.33-0.18,0.67-0.35,1.02-0.51c0.13-0.06,0.25-0.12,0.38-0.18C38.71,23.47,39.08,23.33,39.46,23.2z
		 M17.49,41.36c0.02-0.12,0.03-0.25,0.05-0.37c0.04-0.27,0.09-0.54,0.15-0.81c0.18-1.03,0.41-2.05,0.74-3.04
		c0.44-1.25,0.98-2.47,1.62-3.66c0.1-0.18,0.2-0.36,0.3-0.54c0.1-0.18,0.21-0.36,0.31-0.53c0.16-0.26,0.32-0.53,0.49-0.79
		c0.02-0.03,0.04-0.06,0.06-0.09c0.39-0.59,0.8-1.16,1.24-1.71c0.07-0.09,0.14-0.18,0.21-0.26c0.16-0.19,0.32-0.38,0.48-0.56
		c0.18-0.21,0.36-0.41,0.55-0.61c0.11-0.12,0.22-0.24,0.34-0.35c0.32-0.33,0.65-0.65,0.99-0.96c0,0,0,0,0,0
		c0.75-0.68,1.55-1.3,2.39-1.86c0.04-0.03,0.08-0.06,0.13-0.09c0.11-0.08,0.23-0.14,0.35-0.22c0.13-0.09,0.27-0.17,0.4-0.25
		c0.65-0.4,1.33-0.75,2.04-1.05c0.07-0.03,0.13-0.05,0.2-0.08c0.27-0.11,0.54-0.23,0.82-0.32c0.06-0.02,0.11-0.05,0.17-0.07
		c0.33-0.11,0.66-0.2,1-0.29c0.05-0.01,0.11-0.02,0.16-0.04c0.83-0.2,1.67-0.33,2.52-0.37c0.07,0,0.13-0.01,0.2-0.01
		c0.41-0.01,0.82-0.01,1.22,0.02c0.07,0,0.15,0.01,0.22,0.02c0.33,0.03,0.66,0.07,0.99,0.13c0.08,0.01,0.17,0.02,0.25,0.03
		c0,0-0.01,0-0.01,0.01c0.01,0,0.02,0,0.02,0c-0.42,0.17-0.83,0.37-1.23,0.57c-0.19,0.1-0.38,0.21-0.57,0.32
		c-0.19,0.1-0.37,0.21-0.55,0.32c-0.24,0.14-0.47,0.3-0.7,0.45c-0.15,0.1-0.3,0.2-0.45,0.3c-0.2,0.14-0.39,0.29-0.59,0.44
		c-0.18,0.14-0.37,0.28-0.55,0.43c-0.14,0.11-0.27,0.22-0.4,0.34c-0.36,0.31-0.71,0.62-1.05,0.95c-0.03,0.03-0.07,0.06-0.1,0.09
		c-0.39,0.38-0.77,0.78-1.14,1.18c-0.11,0.12-0.21,0.25-0.32,0.37c-0.68,0.78-1.32,1.6-1.9,2.46c-0.91,1.22-1.66,2.54-2.27,3.92
		c-0.09,0.22-0.19,0.44-0.28,0.67c-0.01,0.02-0.02,0.04-0.03,0.07c-1.97,5.19-2.05,11.15-0.57,16.61c0.03,0.1,0.06,0.19,0.08,0.29
		c0.08,0.27,0.16,0.54,0.24,0.81c0.11,0.35,0.23,0.69,0.35,1.04c0,0.01,0.01,0.03,0.01,0.04c1.39,3.86,3.56,7.35,6.35,9.97
		c0.06,0.05,0.11,0.1,0.17,0.15c0.22,0.21,0.45,0.41,0.68,0.61c0.3,0.25,0.6,0.49,0.91,0.72c0.49,0.16,1,0.28,1.52,0.39
		c0.61,0.13,1.23,0.25,1.85,0.37c0.28,0.05,0.55,0.11,0.83,0.17c-0.01,0-0.01,0-0.02,0.01c0.01,0,0.01,0,0.02,0
		c-0.7,0.26-1.42,0.44-2.14,0.58c-0.01,0-0.02,0-0.03,0.01c-1.08,0.21-2.16,0.29-3.19,0.18c-0.24-0.03-0.47-0.08-0.71-0.12
		c-0.1-0.02-0.2-0.03-0.3-0.05c-0.17-0.03-0.35-0.07-0.52-0.11c-1.19-0.28-2.32-0.74-3.39-1.35c-0.03-0.02-0.05-0.03-0.08-0.05
		c-0.32-0.19-0.63-0.39-0.94-0.6c-0.05-0.04-0.11-0.07-0.16-0.11c-0.31-0.22-0.61-0.45-0.9-0.69c-0.17-0.14-0.34-0.29-0.51-0.44
		c-0.1-0.09-0.21-0.18-0.31-0.28c-0.21-0.19-0.41-0.39-0.61-0.59c-0.04-0.04-0.08-0.09-0.13-0.13c-0.92-0.96-1.75-2.01-2.5-3.14
		c-0.03-0.04-0.06-0.08-0.08-0.13c-0.16-0.24-0.32-0.49-0.47-0.75c-0.07-0.11-0.13-0.23-0.2-0.34c-0.12-0.21-0.24-0.41-0.36-0.62
		c-0.18-0.33-0.36-0.67-0.53-1c0,0,0-0.01,0-0.01c-0.2-0.39-0.38-0.79-0.56-1.18c-0.01-0.02-0.01-0.03-0.02-0.05
		c-0.17-0.38-0.33-0.77-0.48-1.16c-0.01-0.01-0.01-0.03-0.02-0.04c-0.15-0.4-0.3-0.79-0.43-1.18c-0.04-0.12-0.07-0.25-0.11-0.37
		c-0.09-0.28-0.18-0.56-0.26-0.83c-0.05-0.18-0.1-0.35-0.15-0.53c-0.38-1.39-0.65-2.76-0.79-4.07c-0.01-0.06-0.02-0.12-0.02-0.17
		c-0.01-0.1-0.03-0.2-0.04-0.3C17.2,45.17,17.23,43.25,17.49,41.36z M8.19,55.21c-0.26-0.18-0.53-0.35-0.79-0.53
		c-0.03-0.04-0.07-0.08-0.11-0.12c-0.03-0.02-0.06-0.04-0.09-0.07c-0.23-0.28-0.53-0.66-0.85-1.13c-0.83-1.16-1.72-2.77-2.3-4.82
		c-0.39-1.35-0.64-2.88-0.6-4.56c0,0,0-0.01,0-0.01c0.02-0.86,0.11-1.67,0.25-2.43c0.42-2.28,1.29-4.1,2.04-5.34
		c0.24-0.41,0.72-0.6,1.19-0.49c1.45,0.35,2.94,0.7,4.43,1.03c0.05,0.01,0.1,0.02,0.15,0.03c1.51,0.34,3.02,0.66,4.5,0.97
		c0.29,0.06,0.54,0.23,0.7,0.48s0.22,0.54,0.15,0.83c0,0.02-0.01,0.04-0.01,0.06c-0.02,0.29-0.08,0.58-0.15,0.88
		c-0.19,1.09-0.33,2.2-0.37,3.31c-0.01,0.23-0.01,0.46-0.01,0.69c0,0.35-0.01,0.71,0,1.06c0.01,0.27,0.02,0.54,0.04,0.81
		c0.02,0.34,0.04,0.69,0.07,1.03c0.02,0.21,0.04,0.42,0.06,0.62c0.05,0.48,0.12,0.96,0.2,1.44c0.02,0.09,0.03,0.19,0.05,0.28
		c0.1,0.57,0.21,1.14,0.35,1.71c0.03,0.11,0.06,0.21,0.08,0.32c0.11,0.44,0.23,0.89,0.36,1.33c0.06,0.19,0.12,0.39,0.18,0.58
		c0.12,0.38,0.25,0.75,0.39,1.13c0.06,0.17,0.12,0.34,0.18,0.5c0.41,1.06,0.87,2.09,1.4,3.1c0.09,0.17,0.18,0.34,0.28,0.51
		c0.07,0.13,0.14,0.26,0.21,0.39c0.03,0.06,0.06,0.12,0.09,0.17c0.12,0.21,0.16,0.45,0.13,0.67c-0.01,0.19-0.08,0.38-0.25,0.55
		c-0.06,0.08-0.14,0.15-0.24,0.22c-0.03,0.02-0.07,0.04-0.11,0.06c-0.09,0.04-0.18,0.08-0.29,0.1c-0.01,0-0.02,0-0.03,0.01
		c-0.11,0.02-0.22,0.01-0.33,0c-0.06-0.01-0.11-0.01-0.17-0.03c-0.01,0-0.03,0-0.04-0.01c-0.93-0.32-1.86-0.63-2.79-0.96
		c-0.9-0.32-1.8-0.64-2.68-0.99C11.68,57.5,9.9,56.43,8.19,55.21z"/>
	<path d="M97.42,41.75c0.1-0.01,0.21-0.02,0.31-0.03c-1.72,0.14-3.45,0.27-5.18,0.39C94.18,42,95.8,41.89,97.42,41.75z"/>
	<path d="M16.2,36.78c0.4,0.09,0.8,0.17,1.2,0.25c-0.79-0.17-1.58-0.33-2.38-0.5C15.42,36.62,15.81,36.7,16.2,36.78z"/>
	<path d="M16.64,12.43c0.61,0.04,1.26,0.09,1.95,0.14c-0.31-0.02-0.62-0.05-0.91-0.07c-1.74-0.33-3.41-0.37-4.99-0.17
		C13.99,12.19,15.32,12.21,16.64,12.43z"/>
	<path d="M1.96,20.15c-0.76,1.78-1.1,3.75-0.94,5.81C0.91,23.95,1.25,21.91,1.96,20.15z"/>
	<path d="M36.49,21.44c2.86,0.13,5.49,1.25,7.75,2.93c-0.03-0.02-0.05-0.04-0.07-0.06C41.72,22.43,39.1,21.55,36.49,21.44z"/>
	<path d="M104.4,18.71L104.4,18.71c-4.52-0.33-10.12-0.73-16.31-1.17C94.16,17.98,99.74,18.38,104.4,18.71z"/>
	<path d="M54.15,41.98c0.2,0.08,0.44,0.13,0.75,0.1c-0.16-0.01-0.31-0.02-0.47-0.03C54.33,42.05,54.24,42.01,54.15,41.98z"/>
	<path d="M19.2,32.96c1.22-2.23,2.79-4.35,4.64-6.15c-1.57,1.49-2.95,3.22-4.04,5.07C19.59,32.23,19.4,32.6,19.2,32.96z"/>
	<path d="M53.43,41.07c0,0.03,0.02,0.05,0.02,0.08c-0.02-0.04-0.02-0.1-0.04-0.14C53.42,41.03,53.43,41.05,53.43,41.07z"/>
	<path d="M3.11,32.29c0.11,0.18,0.28,0.33,0.48,0.42c-0.39-0.45-0.74-0.93-1.04-1.44C2.72,31.61,2.91,31.95,3.11,32.29z"/>
	<path d="M101.05,65.72c1.12-0.22,2.23-0.46,3.35-0.71v0C103.28,65.25,102.17,65.5,101.05,65.72z"/>
	<path d="M44.53,64.09c-0.27,0.23-0.54,0.47-0.82,0.69c0.21-0.17,0.42-0.34,0.63-0.52C44.41,64.21,44.47,64.15,44.53,64.09z"/>
	<path d="M60.99,43.43c-3.14-0.19-4.91-0.39-5.92-0.34c0.36,0.02,0.74,0.1,1.09,0.08C57.77,43.27,59.38,43.35,60.99,43.43z"/>
	<path d="M49.77,57.93c-0.38,0.62-0.79,1.21-1.22,1.8c0.12-0.17,0.25-0.33,0.37-0.5C49.22,58.81,49.5,58.37,49.77,57.93z"/>
	<path d="M53.43,48.11c-0.27,1.68-0.83,3.89-2.05,6.78c0.9-1.95,1.57-4.01,1.95-6.12C53.37,48.55,53.4,48.33,53.43,48.11z"/>
	<path d="M45.14,66.87c0.23,0.04,0.47,0.06,0.7,0.1c-0.57-0.08-1.14-0.16-1.71-0.26C44.46,66.79,44.81,66.82,45.14,66.87z"/>
	<path d="M16.69,48.98c-0.08-0.48-0.14-0.96-0.2-1.44c0.02,0.19,0.03,0.37,0.06,0.56C16.58,48.4,16.64,48.69,16.69,48.98z"/>
	<path d="M16.15,59.6c0.93,0.32,1.86,0.64,2.79,0.96c0.01,0,0.03,0,0.04,0.01c-0.11-0.02-0.23-0.05-0.33-0.11
		C17.81,60.17,16.98,59.89,16.15,59.6z"/>
	<path d="M6.93,35.72c1.45,0.35,2.94,0.7,4.43,1.03C9.87,36.42,8.38,36.08,6.93,35.72z"/>
	<path d="M8.19,55.21c1.7,1.22,3.49,2.29,5.27,3.39C11.66,57.53,9.93,56.4,8.19,55.21z"/>
	<path d="M4.05,48.55c-0.37-1.34-0.61-2.86-0.6-4.56C3.42,45.67,3.66,47.2,4.05,48.55z"/>
	<path d="M7.2,54.49c0.03,0.02,0.06,0.04,0.09,0.07c-0.29-0.32-0.61-0.72-0.95-1.19C6.67,53.83,6.97,54.21,7.2,54.49z"/>
	<path d="M19.9,60.42c0.09-0.06,0.18-0.14,0.24-0.22c0.16-0.17,0.23-0.36,0.25-0.55c-0.03,0.22-0.12,0.42-0.25,0.55
		C20.08,60.29,19.99,60.36,19.9,60.42z"/>
	<path d="M16.85,39.07c0.07-0.29,0.01-0.58-0.15-0.83c0.13,0.29,0.16,0.59,0.14,0.89C16.85,39.11,16.85,39.09,16.85,39.07z"/>
	<path d="M16.33,43.33c0.04-1.11,0.18-2.21,0.37-3.31c-0.11,0.46-0.23,0.92-0.22,1.37C16.39,42.03,16.35,42.68,16.33,43.33z"/>
	<path d="M16,37.76c-1.48-0.31-2.99-0.64-4.5-0.97c0.15,0.03,0.31,0.07,0.46,0.1C13.32,37.19,14.67,37.48,16,37.76z"/>
	<path d="M18.27,54.82c0.41,1.06,0.87,2.09,1.4,3.1C19.15,56.91,18.68,55.88,18.27,54.82z"/>
	<path d="M74.26,90.45c-3.68,0.11-7.36,0.09-11.03-0.09C66.91,90.54,70.59,90.56,74.26,90.45z"/>
	<path class="st2" d="M36.94,24.31c-0.14,0.07-0.27,0.15-0.4,0.23c-0.29,0.17-0.58,0.34-0.86,0.53c-0.2,0.13-0.4,0.27-0.59,0.41
		c-0.13,0.09-0.25,0.18-0.37,0.28c-3.02,2.29-5.5,5.32-7.16,8.73c-1.76,3.8-2.45,8.01-2.16,12.16c0.39,4.63,1.96,9.23,4.41,12.97
		c1.34,1.98,2.97,3.78,4.87,5.29c0.86,0.2,1.75,0.38,2.63,0.57c0.89,0.18,1.78,0.36,2.67,0.52c0,0,0,0,0,0
		c1.28-0.68,2.48-1.48,3.58-2.37c0.14-0.12,0.29-0.23,0.43-0.35c0.02-0.02,0.04-0.03,0.06-0.05c2.55-2.26,4.65-5.04,6.15-8.11
		c1.73-3.66,2.59-7.74,2.44-11.8c-0.17-2.9-0.81-5.8-1.89-8.52c-0.07-0.18-0.15-0.35-0.23-0.53c-0.63-1.48-1.41-2.93-2.33-4.29
		c-1.23-1.8-2.72-3.41-4.46-4.76c-0.05-0.04-0.1-0.07-0.14-0.11c-0.18-0.14-0.37-0.26-0.56-0.39c-0.15-0.1-0.3-0.2-0.46-0.3
		c-0.09-0.05-0.18-0.1-0.27-0.16c-0.58-0.34-1.17-0.64-1.8-0.9c-0.24-0.1-0.48-0.2-0.73-0.28c-0.1,0.03-0.2,0.08-0.31,0.11
		c-0.38,0.13-0.75,0.27-1.12,0.43c-0.13,0.06-0.25,0.12-0.38,0.18C37.62,23.96,37.28,24.13,36.94,24.31z"/>
	<path class="st2" d="M43.56,63.62c-1.11,0.89-2.3,1.69-3.58,2.37C41.24,65.37,42.44,64.53,43.56,63.62z"/>
	<path class="st2" d="M40.5,23.37c0.62,0.26,1.22,0.56,1.8,0.9C41.72,23.92,41.12,23.62,40.5,23.37z"/>
	<path class="st2" d="M39.76,23.08c-0.1,0.03-0.2,0.08-0.3,0.11C39.56,23.16,39.66,23.12,39.76,23.08
		C39.77,23.08,39.76,23.08,39.76,23.08z"/>
	<path class="st2" d="M29.8,59.61c-2.45-3.73-4.02-8.34-4.41-12.97C25.71,51.25,27.22,55.79,29.8,59.61z"/>
	<path class="st2" d="M48.19,29.97c0.92,1.36,1.7,2.81,2.33,4.29C49.88,32.75,49.11,31.31,48.19,29.97z"/>
	<path class="st2" d="M50.53,34.29c0-0.01-0.01-0.02-0.02-0.03c0.07,0.18,0.16,0.35,0.23,0.53C50.67,34.62,50.61,34.46,50.53,34.29z
		"/>
	<path class="st2" d="M34.72,25.75c-0.2,0.15-0.42,0.3-0.61,0.46c-2.94,2.3-5.1,5.15-6.55,8.28C29.22,31.07,31.7,28.04,34.72,25.75z
		"/>
	<path class="st2" d="M50.19,55.11c1.58-3.24,2.48-6.8,2.49-10.42c0-0.46-0.02-0.92-0.05-1.38C52.78,47.37,51.92,51.45,50.19,55.11z
		"/>
	<path class="st2" d="M44.01,63.24c0.01-0.01,0.02-0.02,0.03-0.03c-0.02,0.02-0.04,0.03-0.06,0.05C43.99,63.26,44,63.25,44.01,63.24
		z"/>
	<path class="st2" d="M43.67,25.17c-0.03-0.02-0.06-0.04-0.09-0.06c0.05,0.04,0.1,0.07,0.14,0.11
		C43.71,25.2,43.69,25.19,43.67,25.17z"/>
	<path class="st3" d="M17.47,47.38c0.01,0.06,0.01,0.12,0.02,0.17c0.16,1.38,0.43,2.74,0.79,4.07c0.05,0.18,0.1,0.35,0.15,0.53
		c0.08,0.28,0.17,0.56,0.26,0.83c0.17,0.52,0.35,1.04,0.55,1.55c0.01,0.01,0.01,0.03,0.02,0.04c0.15,0.39,0.31,0.77,0.48,1.16
		c0.01,0.02,0.01,0.03,0.02,0.05c0.18,0.4,0.36,0.79,0.56,1.18c0,0,0,0.01,0,0.01c0.17,0.34,0.35,0.67,0.53,1
		c0.12,0.21,0.24,0.42,0.36,0.62c0.07,0.11,0.13,0.23,0.2,0.34c0.15,0.25,0.31,0.5,0.47,0.75c0.03,0.04,0.06,0.08,0.08,0.13
		c0.75,1.13,1.59,2.19,2.5,3.14c0.04,0.04,0.08,0.09,0.13,0.13c0.2,0.2,0.4,0.4,0.61,0.59c0.1,0.1,0.21,0.19,0.31,0.28
		c0.17,0.15,0.33,0.3,0.51,0.44c0.29,0.24,0.6,0.47,0.9,0.69c0.05,0.04,0.11,0.07,0.16,0.11c0.31,0.21,0.62,0.41,0.94,0.6
		c0.03,0.02,0.05,0.03,0.08,0.05c1.05,0.6,2.18,1.06,3.39,1.35c0.17,0.04,0.34,0.08,0.52,0.11c0.1,0.02,0.2,0.04,0.3,0.05
		c1.24,0.19,2.54,0.19,3.9-0.06c0.01,0,0.02,0,0.03-0.01c0.69-0.13,1.4-0.32,2.12-0.59c-0.26-0.06-0.54-0.12-0.81-0.17
		c-0.62-0.12-1.24-0.24-1.85-0.37c-0.52-0.11-1.03-0.23-1.52-0.39c-0.31-0.23-0.61-0.47-0.91-0.72c-0.23-0.19-0.46-0.4-0.68-0.61
		c-0.06-0.05-0.11-0.1-0.17-0.15c-2.82-2.64-4.98-6.12-6.35-9.97c0-0.01-0.01-0.03-0.01-0.04c-0.12-0.34-0.24-0.69-0.35-1.04
		c-0.08-0.27-0.16-0.54-0.24-0.81c-0.03-0.1-0.06-0.19-0.08-0.29c-1.5-5.48-1.46-11.46,0.57-16.61c0.01-0.02,0.02-0.04,0.03-0.07
		c0.09-0.23,0.18-0.45,0.28-0.67c0.9-2.13,2.12-4.12,3.72-5.86c0.14-0.18,0.3-0.35,0.45-0.52c0.11-0.12,0.21-0.25,0.32-0.37
		c0.37-0.41,0.75-0.8,1.14-1.18c0.03-0.03,0.07-0.06,0.1-0.09c0.34-0.33,0.69-0.64,1.05-0.95c0.06-0.05,0.12-0.12,0.19-0.17
		c0.07-0.06,0.15-0.11,0.22-0.17c0.18-0.15,0.36-0.29,0.55-0.43c0.2-0.15,0.39-0.3,0.59-0.44c0.15-0.1,0.3-0.2,0.45-0.3
		c0.23-0.15,0.46-0.31,0.7-0.45c0.18-0.11,0.37-0.21,0.55-0.32c0.19-0.11,0.38-0.22,0.57-0.32c0.4-0.21,0.8-0.4,1.21-0.58
		c-0.08-0.02-0.16-0.02-0.24-0.04c-0.33-0.06-0.66-0.1-0.99-0.13c-0.07-0.01-0.15-0.01-0.22-0.02c-0.41-0.03-0.82-0.03-1.22-0.02
		c-0.07,0-0.13,0.01-0.2,0.01c-0.85,0.04-1.69,0.17-2.52,0.37c-0.05,0.01-0.11,0.02-0.16,0.04c-0.39,0.1-0.78,0.22-1.17,0.35
		c-0.28,0.1-0.55,0.21-0.82,0.32c-0.07,0.03-0.13,0.05-0.2,0.08c-0.7,0.31-1.38,0.66-2.04,1.05c-0.13,0.08-0.27,0.16-0.4,0.25
		c-0.16,0.1-0.32,0.2-0.47,0.31c-0.84,0.57-1.64,1.19-2.39,1.86c0,0,0,0,0,0c-0.34,0.31-0.67,0.63-0.99,0.96
		c-0.11,0.12-0.23,0.24-0.34,0.35c-0.19,0.2-0.37,0.41-0.55,0.61c-0.16,0.19-0.32,0.37-0.48,0.56c-0.07,0.09-0.14,0.18-0.21,0.26
		c-0.44,0.55-0.86,1.12-1.24,1.71c-0.02,0.03-0.04,0.06-0.06,0.09c-0.17,0.26-0.33,0.52-0.49,0.79c-0.11,0.18-0.21,0.35-0.31,0.53
		c-0.1,0.18-0.2,0.36-0.3,0.54c-1.12,2.1-1.91,4.36-2.36,6.7c-0.05,0.27-0.1,0.54-0.15,0.81c-0.02,0.12-0.03,0.25-0.05,0.37
		C17.24,43.35,17.25,45.38,17.47,47.38z"/>
	<path class="st3" d="M32.66,22.82c0.82-0.2,1.67-0.33,2.52-0.37C34.33,22.49,33.49,22.61,32.66,22.82z"/>
	<path class="st3" d="M38.06,22.63c-0.08-0.02-0.17-0.02-0.25-0.03c0.08,0.01,0.16,0.02,0.24,0.04
		C38.05,22.64,38.06,22.64,38.06,22.63z"/>
	<path class="st3" d="M31.48,67.19c-1.2-0.29-2.34-0.75-3.39-1.35C29.15,66.45,30.29,66.92,31.48,67.19z"/>
	<path class="st3" d="M33.02,25.81c0.13-0.11,0.27-0.23,0.4-0.34c-0.07,0.06-0.15,0.11-0.22,0.17
		C33.15,25.7,33.09,25.76,33.02,25.81z"/>
	<path class="st3" d="M38.35,66.69c-0.27-0.06-0.55-0.11-0.83-0.17c0.27,0.06,0.54,0.11,0.81,0.17
		C38.34,66.7,38.35,66.7,38.35,66.69z"/>
	<path class="st3" d="M28.28,24.66c0.66-0.39,1.34-0.74,2.04-1.05C29.62,23.91,28.94,24.26,28.28,24.66z"/>
	<path class="st3" d="M27.53,25.12c-0.04,0.03-0.08,0.06-0.13,0.09c0.16-0.1,0.31-0.21,0.47-0.31
		C27.77,24.98,27.65,25.05,27.53,25.12z"/>
	<path class="st3" d="M35.68,66.15c-0.52-0.11-1.03-0.23-1.52-0.39c-0.31-0.23-0.61-0.47-0.91-0.72c0.3,0.25,0.6,0.49,0.91,0.72
		C34.65,65.92,35.16,66.04,35.68,66.15z"/>
	<path class="st3" d="M25.37,52.14c-1.47-5.46-1.4-11.42,0.57-16.61C23.91,40.69,23.87,46.67,25.37,52.14z"/>
	<path class="st3" d="M17.47,47.38c-0.22-2-0.23-4.03,0.02-6.03c-0.26,1.89-0.3,3.82-0.06,5.72C17.44,47.18,17.46,47.28,17.47,47.38
		z"/>
	<path class="st3" d="M18.28,51.63c-0.36-1.34-0.63-2.7-0.79-4.07C17.63,48.88,17.9,50.25,18.28,51.63z"/>
	<path class="st3" d="M18.8,53.36c0.14,0.39,0.28,0.79,0.43,1.18c-0.2-0.52-0.38-1.03-0.55-1.55C18.73,53.12,18.76,53.24,18.8,53.36
		z"/>
</g>
</svg>
