<?xml version="1.0" encoding="utf-8"?>
<!-- Generator: Adobe Illustrator 24.1.2, SVG Export Plug-In . SVG Version: 6.00 Build 0)  -->
<svg version="1.1" id="Layer_1" xmlns="http://www.w3.org/2000/svg" xmlns:xlink="http://www.w3.org/1999/xlink" x="0px" y="0px"
	 viewBox="0 0 1024 768" style="enable-background:new 0 0 1024 768;" xml:space="preserve">
<style type="text/css">
	.st0{fill:#603813;stroke:#000000;stroke-miterlimit:10;}
	.st1{fill:#009245;stroke:#000000;stroke-miterlimit:10;}
	.st2{fill:#FFFFFF;stroke:#000000;stroke-miterlimit:10;}
	.st3{fill:#FFFFFF;}
	.st4{fill:#754C24;stroke:#000000;stroke-miterlimit:10;}
	.st5{stroke:#000000;stroke-miterlimit:10;}
	.st6{fill:#8C6239;stroke:#000000;stroke-miterlimit:10;}
	.st7{fill:#A51616;stroke:#000000;stroke-miterlimit:10;}
	.st8{fill:#39B54A;stroke:#000000;stroke-miterlimit:10;}
	.st9{fill:#736357;stroke:#000000;stroke-miterlimit:10;}
	.st10{fill:#FBB03B;}
	.st11{fill:#006837;}
	.st12{fill:#42210B;}
	.st13{fill:#754C24;}
	.st14{fill:#FBB03B;stroke:#000000;stroke-miterlimit:10;}
	.st15{fill:#808080;stroke:#000000;stroke-miterlimit:10;}
	.st16{fill:#333333;stroke:#000000;stroke-miterlimit:10;}
	.st17{fill:#FCEE21;stroke:#000000;stroke-miterlimit:10;}
	.st18{fill:#BAE5E4;stroke:#000000;stroke-miterlimit:10;}
</style>
<g id="bg">
	<path class="st0" d="M5.5,766.5c188.8-32.01,419.93-52.88,682-37c122.08,7.4,235.12,21.82,338,40
		C685.5,768.5,345.5,767.5,5.5,766.5z"/>
	<path class="st1" d="M151.54,665.5c-8.18,29.33-16.36,58.67-24.54,88c22.83-3,45.67-6,68.5-9
		C180.85,718.17,166.19,691.83,151.54,665.5z"/>
	<path class="st1" d="M205.85,612c-11.28,45.5-22.57,91-33.85,136.5c31.5-4.65,63-9.31,94.5-13.96
		C246.28,693.69,226.07,652.85,205.85,612z"/>
	<path class="st1" d="M117.65,652.51c-10.04,34.97-20.08,69.95-30.12,104.92c17.95-1.8,35.91-3.59,53.86-5.39
		C133.47,718.86,125.56,685.69,117.65,652.51z"/>
</g>
<g id="clouds">
	<path class="st2" d="M178.5,106.5c8.95,15.39,34.4,20.95,53,6c-6.01,17.55-2.94,36.13,8,46c15.71,14.18,48.5,11.17,67-15
		c16.07,6.74,34.48,1.52,44-12c8.41-11.94,8.46-28.34,0-41c10.04-9.56,9.55-25.55,0-34c-8.82-7.81-23.24-7.29-32,2
		c-8.73-19.75-26.92-33-47-34c-20.46-1.02-34.74,11.08-38,14c-6.97-13.01-23.33-17.86-36-11c-12.99,7.03-17.74,24-10,37
		C174.59,76.41,171.51,94.47,178.5,106.5z"/>
	<path class="st2" d="M1005.76,415.25c-12.06,13.09-38.11,13.01-53.04-5.61c2.07,18.43-4.95,35.91-17.77,43.18
		c-18.4,10.44-49.77,0.41-62.17-29.14c-17.15,3.1-33.99-5.98-40.36-21.24c-5.62-13.47-2.13-29.5,8.87-40.03
		c-7.73-11.5-3.79-27.01,7.36-33.19c10.3-5.71,24.26-2.08,30.81,8.88c12.8-17.39,33.42-26.39,53.24-23.02
		c20.2,3.43,31.51,18.34,34.07,21.89c9.62-11.19,26.64-12.38,37.53-2.95c11.16,9.67,12.12,27.27,1.76,38.29
		C1016.09,386.72,1015.2,405.02,1005.76,415.25z"/>
</g>
<g id="bear">
	<g id="hand_1_">
		<g>
			<polygon class="st3" points="671.23,594.02 677.75,596.93 676.01,600.5 			"/>
			<path d="M672.76,595.25l0.9,0.4l3.42,1.52l-1.15,2.36l-2.56-3.47L672.76,595.25 M669.7,592.8c2.13,2.89,4.26,5.78,6.39,8.67
				c0.78-1.59,1.56-3.19,2.33-4.78C675.52,595.39,672.61,594.09,669.7,592.8L669.7,592.8z"/>
		</g>
		<g>
			<polygon class="st3" points="675.53,586.22 683.89,592.49 678.8,595.86 			"/>
			<path d="M676.52,587.59l2.52,1.89l3.98,2.98l-2.1,1.38l-1.86,1.23l-1.95-5.75L676.52,587.59 M674.54,584.85
				c1.33,3.93,2.67,7.85,4,11.78c2.07-1.37,4.15-2.74,6.22-4.11C681.35,589.96,677.94,587.41,674.54,584.85L674.54,584.85z"/>
		</g>
		<g>
			<polygon class="st3" points="682.65,583.85 689.56,591.31 685.22,591.86 			"/>
			<path d="M683.81,585.84l1.49,1.61l3.23,3.49l-0.93,0.12l-2.04,0.26l-1.44-4.49L683.81,585.84 M681.48,581.85
				c1.13,3.52,2.26,7.04,3.39,10.56c1.91-0.24,3.81-0.48,5.72-0.72C687.56,588.41,684.52,585.13,681.48,581.85L681.48,581.85z"/>
		</g>
		<path class="st0" d="M680.04,625.07c-6.95-11.9-6.45-24.13-0.22-29.78c4.8-4.36,11.56-3.49,12.67-3.33
			c15.98,2.32,28.12,28.02,21.56,36.22C709.46,633.91,695.14,631.94,680.04,625.07z"/>
	</g>
	<path id="body" class="st4" d="M820.5,615.5c-14.74,29.21-61.2,44.84-106,25c-0.33-13.33-0.67-26.67-1-40
		c-5.84-1.12-10.64-1.69-14-2c-7.38-0.68-10.62-0.4-13-3c-1.13-1.23-1.93-2.97-2.18-4.8c-0.15-1.07-0.1-2.16,0.18-3.2
		c1.55-5.72,9.08-5.45,10-10c0.24-1.21,0.02-2.76-9-13c-4.98-5.65-7.47-8.48-10-11c-0.34-0.34-0.67-0.66-0.98-0.97
		c-4.89-4.78-6.23-5.43-7.02-8.03c-1.43-4.71,0.88-9.46,2.3-11.87c2.02,0.98,4.46,1.42,6.7,0.87c5.2-1.27,8.7-7.65,7-11
		c-0.17-0.34-0.39-0.63-0.64-0.9c0.53-0.35,1.07-0.71,1.64-1.1c10.97-7.53,13.19-12.99,19.39-17.42c1.78-1.27,3.88-2.45,6.61-3.58
		c3.09-1.28,5.83-2,8.04-2.46c1.13-0.24,2.12-0.41,2.96-0.54c0.42-0.07,0.83-0.13,1.24-0.19c11.22-1.6,20.46,0.53,25.76,2.19
		c-0.07-0.79-0.69-9.59,6-15c6.58-5.31,16.65-4.48,22,1c6.49,6.64,5.73,19.81-4,27c4.44,1.08,11.1,3.27,18,8c0,0,7.73,5.3,14,14
		C808.69,539.31,837.32,582.16,820.5,615.5z"/>
	<g id="hand">
		<g>
			<polygon class="st3" points="751.53,564.39 758.05,567.3 756.3,570.87 			"/>
			<path d="M753.05,565.62l0.9,0.4l3.42,1.52l-1.15,2.36l-2.56-3.47L753.05,565.62 M750,563.17c2.13,2.89,4.26,5.78,6.39,8.67
				c0.78-1.59,1.56-3.19,2.33-4.78C755.81,565.76,752.91,564.46,750,563.17L750,563.17z"/>
		</g>
		<g>
			<polygon class="st3" points="755.83,556.59 764.19,562.86 759.1,566.23 			"/>
			<path d="M756.82,557.96l2.52,1.89l3.98,2.98l-2.1,1.38l-1.86,1.23l-1.95-5.75L756.82,557.96 M754.83,555.22
				c1.33,3.93,2.67,7.85,4,11.78c2.07-1.37,4.15-2.74,6.22-4.11C761.65,560.33,758.24,557.78,754.83,555.22L754.83,555.22z"/>
		</g>
		<g>
			<polygon class="st3" points="762.94,554.22 769.86,561.68 765.52,562.23 			"/>
			<path d="M764.11,556.21l1.49,1.61l3.23,3.49l-0.93,0.12l-2.04,0.26l-1.44-4.49L764.11,556.21 M761.78,552.22
				c1.13,3.52,2.26,7.04,3.39,10.56c1.91-0.24,3.81-0.48,5.72-0.72C767.85,558.78,764.81,555.5,761.78,552.22L761.78,552.22z"/>
		</g>
		<path class="st0" d="M760.33,595.44c-6.95-11.9-6.45-24.13-0.22-29.78c4.8-4.36,11.56-3.49,12.67-3.33
			c15.98,2.32,28.12,28.02,21.56,36.22C789.76,604.28,775.44,602.31,760.33,595.44z"/>
	</g>
	<path id="nose" class="st5" d="M676.5,533.5c-2.24,0.55-4.68,0.11-6.7-0.87c-2.38-1.17-4.16-3.11-4.3-5.13c-0.21-2.97,3.17-5.4,4-6
		c2.98-2.15,6.14-2.04,7-2c0.92,0.04,4.54,0.22,6.36,2.1c0.25,0.27,0.47,0.56,0.64,0.9C685.2,525.85,681.7,532.23,676.5,533.5z"/>
	<g id="ear">
		<path class="st6" d="M722.74,496.31c-0.41,0.06-0.82,0.12-1.24,0.19c-0.84,0.13-1.83,0.3-2.96,0.54
			c-1.25-5.12-7.64-10.64-14.04-10.54c-1.05,0.02-2.23,0.19-3.41,0.53c2.17-1.71,5.09-2.49,7.41-2.53
			C715.44,484.39,722.37,490.89,722.74,496.31z"/>
		<path class="st0" d="M718.54,497.04c-2.21,0.46-4.95,1.18-8.04,2.46c-2.73,1.13-4.83,2.31-6.61,3.58
			c-4.83-3.24-6.84-8.59-5.39-12.58c0.52-1.43,1.45-2.57,2.59-3.47c1.18-0.34,2.36-0.51,3.41-0.53
			C710.9,486.4,717.29,491.92,718.54,497.04z"/>
	</g>
	<g id="eyes">
		<ellipse class="st2" cx="729.5" cy="523" rx="6" ry="5.5"/>
		<ellipse class="st2" cx="701.5" cy="517" rx="5" ry="4.5"/>
		<circle cx="699.89" cy="517.22" r="1.11"/>
		<circle cx="728.59" cy="523.7" r="1.52"/>
	</g>
	<g id="mounth">
		<path class="st7" d="M694.5,589.5c-3.01,0.64-6.54,1.08-10.18,1.2c-0.15-1.07-0.1-2.16,0.18-3.2c1.55-5.72,9.08-5.45,10-10
			c0.24-1.21,0.02-2.76-9-13c-4.98-5.65-7.47-8.48-10-11c-0.34-0.34-0.67-0.66-0.98-0.97c2.89-3.28,5.97-5.81,9.98-6.03
			c5.06-0.29,10.59,3.09,17,7c3.74,2.28,3.51,2.62,5,3c5.86,1.5,9.29-4.24,18-5c5.21-0.46,8.82-0.77,10,1
			C738.08,557.89,720.12,584.07,694.5,589.5z"/>
		<g>
			<polygon class="st3" points="676.56,555.15 680.49,559.86 675.78,564.57 			"/>
			<path d="M676.96,556.4l0.94,1.13l1.92,2.3l-3.42,3.42l0.27-3.28L676.96,556.4 M676.17,553.89c-0.33,4-0.67,8-1,12c2-2,4-4,6-6
				C679.5,557.89,677.83,555.89,676.17,553.89L676.17,553.89z"/>
		</g>
		<g>
			<polygon class="st3" points="682.56,561.2 686.49,565.91 681.78,570.63 			"/>
			<path d="M682.96,562.46l0.94,1.13l1.92,2.3l-3.42,3.42l0.27-3.28L682.96,562.46 M682.17,559.94c-0.33,4-0.67,8-1,12c2-2,4-4,6-6
				C685.5,563.94,683.83,561.94,682.17,559.94L682.17,559.94z"/>
		</g>
		<g>
			<polygon class="st3" points="689.52,573.72 692.94,579.25 689.85,581.4 			"/>
			<path d="M690.11,575.62l0.32,0.52l1.84,2.97l-1.42,0.99l-0.53,0.37l-0.13-2.95L690.11,575.62 M688.94,571.83
				c0.15,3.5,0.3,7,0.44,10.5c1.41-0.98,2.81-1.96,4.22-2.94C692.06,576.87,690.5,574.35,688.94,571.83L688.94,571.83z"/>
		</g>
		<g>
			<polygon class="st3" points="684.42,577.74 688.08,582.37 685.67,584.35 			"/>
			<path d="M685.29,579.64l0.21,0.27l1.89,2.39l-0.81,0.67l-0.57,0.47l-0.58-3.06L685.29,579.64 M683.56,575.83
				c0.59,3.15,1.19,6.3,1.78,9.44c1.15-0.94,2.3-1.89,3.44-2.83C687.04,580.24,685.3,578.04,683.56,575.83L683.56,575.83z"/>
		</g>
		<g>
			<polygon class="st3" points="686.86,547.15 691.65,548.75 684.47,557.53 			"/>
			<path d="M687.23,547.8l1.96,0.65l1.62,0.54l-3.58,4.38l-1.79,2.19l0.54-2.33L687.23,547.8 M686.5,546.5c-1,4.33-2,8.67-3,13
				c3-3.67,6-7.33,9-11C690.5,547.83,688.5,547.17,686.5,546.5L686.5,546.5z"/>
		</g>
		<g>
			<polygon class="st3" points="699.33,552.8 703.13,555.32 698.22,560.92 			"/>
			<path d="M699.72,553.66l1.14,0.76l1.52,1.01l-2.44,2.78l-1,1.14l0.27-1.98L699.72,553.66 M698.94,551.94
				c-0.48,3.52-0.96,7.04-1.44,10.56c2.13-2.43,4.26-4.85,6.39-7.28C702.24,554.13,700.59,553.04,698.94,551.94L698.94,551.94z"/>
		</g>
		<g>
			<polygon class="st3" points="714.16,555.75 720.58,552.9 717.42,563.08 			"/>
			<path d="M719.78,553.81l-1.29,4.14l-1.16,3.71l-0.92-2.07l-1.59-3.59l3.03-1.34L719.78,553.81 M721.39,552
				c-2.63,1.17-5.26,2.33-7.89,3.5c1.33,3,2.67,6,4,9C718.8,560.33,720.09,556.17,721.39,552L721.39,552z"/>
		</g>
		<g>
			<polygon class="st3" points="716.77,569.9 720.34,575.77 715.04,579.83 			"/>
			<path d="M717.03,571.29l1.07,1.76l1.58,2.59l-2.43,1.86l-1.5,1.15l0.33-1.9L717.03,571.29 M716.5,568.5
				c-0.72,4.17-1.44,8.33-2.17,12.5c2.22-1.7,4.44-3.41,6.67-5.11C719.5,573.43,718,570.96,716.5,568.5L716.5,568.5z"/>
		</g>
		<g>
			<polygon class="st3" points="704.72,575.49 707.92,583.9 703.23,586.01 			"/>
			<path d="M704.95,577.49l0.46,1.22l1.88,4.94l-2.11,0.95l-1.32,0.59l0.69-4.87L704.95,577.49 M704.5,573.5
				c-0.63,4.44-1.26,8.89-1.89,13.33c1.98-0.89,3.96-1.78,5.94-2.67C707.2,580.61,705.85,577.06,704.5,573.5L704.5,573.5z"/>
		</g>
		<g>
			<polygon class="st3" points="694.72,580.54 697.56,588.27 693.49,589.33 			"/>
			<path d="M694.94,582.58l0.65,1.78l1.31,3.56l-1.3,0.34l-1.51,0.39l0.6-4.27L694.94,582.58 M694.5,578.5
				c-0.54,3.83-1.07,7.67-1.61,11.5c1.78-0.46,3.56-0.93,5.33-1.39C696.98,585.24,695.74,581.87,694.5,578.5L694.5,578.5z"/>
		</g>
	</g>
</g>
<g id="main_tree">
	<path class="st8" d="M531.5,767.5c-22.88-15.84-31-44.8-21-67c11.98-26.6,48.12-39.39,78-23c3.5-26.83,21.64-49.6,47-59
		c25.31-9.39,53.85-3.99,74,14c1.47-3.42,17.59-39.17,56-47c31.92-6.5,65.85,9,84,39c31.31-9.43,64.3-1.82,85,20
		c19.34,20.38,20.83,45.64,21,53c22.31,3.25,40.36,17.71,46,37c4.73,16.15-0.85,30.22-3,35C842.83,768.83,687.17,768.17,531.5,767.5
		z"/>
	<path class="st9" d="M797.5,769.5c6.46-60.06,10.1-130.09,7-208c-3.06-76.74-12.03-145.31-23-204c-16.46-51.8-41.7-77.47-60-91
		c-21.52-15.91-21.84-6.46-92-41c-15.34-7.55-39.61-19.96-75-32c-8.16-2.78-14.97-4.87-19.56-6.24
		c-42.49,11.07-63.96,15.82-64.44,14.24c-0.42-1.39,15.58-7.73,48-19c-41.62-7.54-88.37-16.52-88-19c0.32-2.19,37.07,1.59,41,2
		c39.04,4.06,94.58,13.37,183,44c35.29,12.23,81.45,29.8,134.5,54.5c-4.87-159.35-0.49-205.85,6.5-206.5
		c10.79-1.01,25.2,107.34,49,107c15.89-0.23,21.97-48.71,31-48c17.35,1.37,12.11,181.68,23,338c9.49,136.27,30.59,245.17,46,313
		C895.5,768.17,846.5,768.83,797.5,769.5z"/>
</g>
<g id="beehive">
	<g id="Base">
		<path class="st10" d="M633.63,251.76l-19.71-1.23c0.52-0.36,1-0.71,1.5-1.11c2.55-1.94,4.78-4.29,6.69-6.86
			c1.95-2.59,3.53-5.46,4.81-8.44c0.11-0.24,0.26-0.88,0.25-0.27C627.71,240.23,630.18,246.46,633.63,251.76z"/>
		<path class="st10" d="M663.2,272.27c-0.13,0.58-0.83,1.03-1.35,0.77c-23.34-2.26-46.69-4.49-70.04-6.73
			c-0.46-0.04-0.84-0.35-0.95-0.77c-0.7-2.45-0.66-4.76,0.11-6.87c0.38-1.05,0.95-2.06,1.7-2.99c0.98,0.07,1.98,0.1,2.96,0.1
			c2.41,0,4.74-0.21,6.97-0.64c3.47-0.67,6.82-1.91,9.86-3.7c0,0.01,21.93,1.35,21.91,1.37c5.37,7.73,14.7,12.39,23.56,13.89
			c1.92,0.36,3.85,0.59,5.79,0.74C663.8,269.04,663.63,270.66,663.2,272.27z"/>
		<path class="st10" d="M673.61,290.45c-0.1,1.19,0.33,3.15-1.2,3.32c0,0-93.79-6.69-93.79-6.69c-0.48-0.37-0.99-0.74-1.47-1.1
			c-1.61-4.05-1.33-8.61,0.78-12.23c3.06-5.22,8.65-6.45,10.23-6.7c24.39,2.1,48.76,4.67,73.14,6.94c0.04,0,0.07,0.01,0.1,0.01
			l0.05,0.05c0.51,0.04,0.9,0.26,1.5,0.47C669.3,276.81,673.88,283.67,673.61,290.45z"/>
		<path class="st10" d="M678.39,313.71c-0.14,0.24-0.35,0.41-0.61,0.5c-2.34,0.74-4.49,1.54-6.9,1.71c-4.29,0.56-8.6,1-12.91,1.36
			c-14.12,1.17-28.38,1.29-42.51,0.33c-2.01,0.17-1.44-2.24-1.96-3.57c-0.8-3.39-2.21-6.67-4.23-9.5c-2.85-4.05-7.23-7.4-12.33-7.58
			c-8.54-0.24-15.56,6.91-18.55,14.39c-0.16,0.4-0.29,0.81-0.44,1.21c-0.4-0.08-0.8-0.16-1.2-0.25c-2-0.43-4.07-0.85-6.1-1.35
			c-2.32-0.91-4.51-1.83-6.51-2.72c-0.2-0.09-0.37-0.24-0.48-0.42c-6.41-10.74,2.53-22.06,14.57-19.79
			c17.18,1.3,78.08,5.55,94.17,6.74c0,0,1.31,0.1,1.31,0.1c0.62,0.1,1.36-0.06,1.87,0.37c1.54,1.41,3.55,3.83,4.43,7.38
			C681.29,307.77,679.3,312.09,678.39,313.71z"/>
		<path class="st10" d="M681,325.52c0.17,5.29-2.52,9.05-3.68,10.42c-1.77,1.22-3.84,2.06-5.75,3.04
			c-21.51,5.63-43.95,6.83-65.88,3.42c-0.34-0.05-0.68-0.09-1.01-0.16c-0.85-0.21-1.17-1.29-0.42-1.93c3.25-2.57,5.85-5.95,7.6-9.71
			c7.01-16.49-7.02-11.09,22.62-11.35c12.16,0,24.34-0.77,36.41-2.32c1.93-0.23,3.89-0.53,5.8-0.8c0.39-0.06,0.77,0.09,1.01,0.4
			C679.43,318.75,680.96,322.09,681,325.52z"/>
		<path class="st10" d="M580.68,335.73c-0.22,0.29-0.68,0.52-1.2,0.35c-1.83-0.63-3.68-1.24-5.47-1.95
			c-2.13-1.31-4.27-2.57-6.26-4.11c-1.17-1.39-3.87-5.2-3.75-10.51c0.08-3.43,1.29-6.12,2.29-7.77c0.24-0.41,0.72-0.6,1.19-0.49
			c2.97,0.72,6.08,1.41,9.07,2.04c0.29,0.06,0.54,0.23,0.7,0.48s0.22,0.54,0.15,0.83c-0.3,1.45-0.5,2.94-0.54,4.42
			c-0.16,5.06,1.08,10.14,3.45,14.61C580.67,334.27,581.28,335.1,580.68,335.73z"/>
		<path class="st10" d="M676,349.5c0,5.29-3.49,8.54-4.56,9.42c-1.75,0.74-3.82,1.13-5.71,1.68c-17.11,4.44-35.06,5.59-52.6,3.35
			c-9.79-1.24-19.44-3.52-28.75-6.78c-4.66-1.97-10.78-2.45-13.4-10.79c-1.17-4.67,0.71-8.47,2.01-10.4l1.68-0.52
			c2.8,1.02,5.79,2.02,8.64,2.88c0.83,0.45,1.39,1.4,2.15,1.96c1.42,1.25,3.04,2.3,4.81,2.96c2.72,1.06,5.77,1.01,8.52,0.06
			c0.75-0.17,1.44-0.74,2.21-0.7c6.43,1.17,12.94,1.97,19.47,2.38c12.56,0.76,25.19,0.07,37.59-2.08c4.48-0.77,8.93-1.74,13.33-2.87
			C675.87,343.55,676,348.9,676,349.5z"/>
		<path class="st10" d="M667.59,363.72c-3.19,20.02-38.6,20.12-45.06,19.28c-12.31-0.39-32.8-3.92-37.79-22.45
			c0,0,1.7-1.62,1.7-1.62c12.06,3.99,24.65,6.34,37.34,6.96c11.79,0.58,23.66-0.34,35.22-2.71c2.16-0.44,4.3-0.93,6.44-1.48
			L667.59,363.72z"/>
	</g>
	<path id="Outline" d="M678.49,315.91c-0.26-0.49-1.23-0.58-0.4-0.75c0.49-0.16,0.91-0.5,1.17-0.96c0.97-1.72,3.09-6.32,1.73-11.82
		c-0.95-3.79-3.1-6.37-4.73-7.88c-0.58-0.57-1.41-0.55-2.17-0.61c0.21-0.29,0.35-0.64,0.39-1.01c1.09-7.57-2.96-16.16-11.04-19.24
		c0.34-0.26,0.6-0.65,0.72-1.11c0.45-1.68,0.64-3.36,0.57-5.03c3.12,0.42,12.13-0.36,11.86-0.51c0,0,0.38-0.07,0.38-0.07l0.03-0.39
		c0.42-6.71-0.2-19.59-9.12-30.35c-7.74-9.57-27.74-20.96-37.72-13.04c-0.23,0.22-0.47,0.46-0.67,0.72
		c0.03-0.24,0.04-0.48,0.05-0.72c1.02-17.64-19.37-10.84-30.3-4.07c-14.81,9.21-20.24,24.14-22.32,32.71c0,0,0.37,0.18,0.37,0.18
		c0.66,0.3,6.49,2.87,14.2,3.62c-0.62,0.87-1.11,1.79-1.46,2.75c-0.85,2.34-0.92,5.17,0,7.81c0,0-1.23-0.11-1.23-0.11l-0.74,0.03
		c-8.19,1.05-16.02,9.67-11.78,20.43c0,0,0.05,0.13,0.05,0.13c0.12,0.09,0.24,0.17,0.36,0.27c-6-0.76-11.96,2.21-14.63,7.38
		c-2.26,4.35-1.97,9.75,0.75,14.08c0.86,1.15,2.42,1.32,3.69,2c-0.44,0.15-0.82,0.45-1.07,0.87c-1.06,1.76-2.35,4.62-2.43,8.27
		c0.03,6.04,2.65,9.75,4.38,11.54c1.94,1.36,3.87,2.61,5.89,3.82l-0.91,0.28l-0.09,0.14c-5.79,8.15-1.31,17.91,6.04,20.69
		c2.11,0.84,4.68,1.81,7.06,2.6c0,0-1.76,1.68-1.76,1.68c4.95,19.52,25.87,23.35,38.86,23.76c14.19,0.8,42.06-0.52,46.16-20.36
		c0,0,0.05-0.27,0.05-0.27l-2.1-1.97c0.42-0.1,0.83-0.22,1.25-0.33c1.48-0.49,2.98-0.64,4.24-1.38c2.38-1.76,6.61-7.6,4.24-14.16
		c-0.61-1.86-1.74-4.05-3.85-5.87c1.86-0.99,3.97-1.76,5.62-3.07C682.76,331.33,683.58,322.14,678.49,315.91z M628.86,228.11
		c0.61-5.14,4.97-6.84,10.49-6.56c9.23,0.56,20.9,6.98,27.77,15.27c8.52,10.29,9.27,22.58,8.9,29.25
		c-11.49,1.77-30.86-0.18-40.37-13.19c-4.36-5.97-7.39-13.32-7.55-20.83C628.01,230.68,628.61,229.43,628.86,228.11z M627.17,233.85
		c0.53,6.31,2.96,12.49,6.35,17.74c0.04,0.07,0.11,0.13,0.11,0.17c0,0-19.71-1.23-19.71-1.23c5.26-3.62,9.38-8.76,12.13-14.5
		c0.4-0.83,0.77-1.65,1.1-2.51C627.16,233.63,627.16,233.74,627.17,233.85z M578.09,251.21c2.07-8.14,7.61-22.62,21.67-31.28
		c7.49-4.61,21.27-10.06,26.39-5.07c2.1,2.04,2.87,6.03,2.13,10.95c-0.5,1.09-0.81,2.26-0.98,3.46c-0.11,0.56-0.05,1.19-0.29,1.73
		c-0.97,2.91-2.26,5.71-3.9,8.31C612.89,256.39,593.61,257.63,578.09,251.21z M613.21,250.98c-0.01,0.01-0.02,0.02-0.02,0.02
		C613.19,250.99,613.2,250.98,613.21,250.98z M590.97,258.67c0.38-1.05,0.95-2.06,1.7-2.99c0.98,0.07,1.98,0.1,2.96,0.1
		c3.3-0.01,6.35-0.37,9.43-1.22c2.6-0.71,5.08-1.76,7.4-3.12c0,0,21.9,1.36,21.9,1.36c3.22,4.53,7.63,8.02,12.52,10.38
		c5.63,2.67,10.97,3.78,16.84,4.26c0.08,1.6-0.09,3.22-0.52,4.83c-0.13,0.58-0.83,1.03-1.35,0.77c0,0-0.14,0-0.14,0
		c-23.29-2.3-46.59-4.48-69.9-6.73c-0.46-0.04-0.84-0.35-0.95-0.77C590.16,263.09,590.2,260.78,590.97,258.67z M577.93,273.75
		c3.35-5.44,8.69-6.57,10.84-6.72c24.28,2.35,48.64,4.6,72.88,7.03c7.04,1.99,12.23,9.02,11.96,16.39c-0.1,1.19,0.33,3.15-1.2,3.32
		c0,0-93.79-6.69-93.79-6.69c-0.48-0.37-0.99-0.74-1.47-1.1C575.54,281.93,575.82,277.37,577.93,273.75z M564.14,308.24
		c-3.18-3.59-3.26-9.52-1.2-13.51c2.58-4.98,8.44-7.76,14.25-6.77c18.81,1.34,78.67,5.62,96.52,6.91c0.62,0.1,1.36-0.06,1.87,0.37
		c1.54,1.41,3.55,3.83,4.43,7.38c1.28,5.15-0.71,9.47-1.62,11.09c-0.14,0.24-0.35,0.41-0.61,0.5c-1.56,0.5-3.08,0.99-4.57,1.4
		c-2.27,0.32-4.55,0.6-6.83,0.85c-5.54,0.63-11.1,1.09-16.67,1.38c-9.65,0.52-19.35,0.54-29.01,0.08c-1.94-0.09-3.81-0.21-5.72-0.34
		c-0.52-0.04-0.93-0.44-1-0.98c-0.93-6.43-4-12.81-9.26-16.77c-8.7-6.64-19.42-0.79-24.37,7.58c-0.99,1.62-1.8,3.36-2.4,5.15
		c-2.43-0.51-4.85-1.01-7.3-1.6C568.33,310.05,566.14,309.13,564.14,308.24z M652.44,318.19c-2.38,0.16-4.83,0.28-7.32,0.37
		C647.61,318.46,650.05,318.34,652.44,318.19z M600.52,341.52c-1.77-0.33-3.57-0.7-5.3-1.09c-7.05-5.24-10.92-16.53-8.81-25.76
		c1.27-5.37,4.6-10.24,9.02-13.53c1.48-1.1,3.14-1.97,4.89-2.53c5.09,1.78,8.69,6.38,10.76,11.21
		C616.27,321.21,611.61,335.63,600.52,341.52z M601.31,341.66c0,0.02-0.12-0.02-0.13-0.02
		C601.22,341.65,601.27,341.66,601.31,341.66z M594.71,341.29c1.32,0.44,2.82,0.61,4.19,0.94c-1.76,0.65-3.63,0.94-5.35,0.77
		c-7.22-0.83-12-7.7-14.2-14.11c-1.75-5.2-2.09-10.98-0.38-16.23c2.16-6.15,6.84-11.79,13.08-13.99c2.1-0.69,4.4-0.95,6.57-0.5
		c-1.76,0.73-3.39,1.78-4.86,3c-1.8,1.51-3.4,3.28-4.7,5.23C581.27,316.83,585,334.09,594.71,341.29z M567.95,330.21
		c-1.43-1.56-3.99-5.18-3.95-10.7c0.08-3.43,1.29-6.12,2.29-7.77c0.24-0.41,0.72-0.6,1.19-0.49c1.64,0.4,3.35,0.79,5.03,1.17
		c1.36,0.3,2.71,0.59,4.04,0.87c0.29,0.06,0.54,0.23,0.7,0.48c0.45,0.97-0.25,2.1-0.23,3.14c-0.27,2.23-0.21,4.49,0.07,6.72
		c0.53,3.82,1.78,7.54,3.71,10.88c0.25,0.43,0.13,0.95-0.12,1.22c-0.26,0.4-0.97,0.53-1.49,0.25c-1.73-0.59-3.49-1.17-5.18-1.85
		C571.93,332.89,569.95,331.61,567.95,330.21z M667.59,363.72c-3.19,20.02-38.6,20.12-45.06,19.28
		c-12.31-0.39-32.8-3.92-37.79-22.45c0,0,1.7-1.62,1.7-1.62c12.06,3.99,24.65,6.34,37.34,6.96c11.79,0.58,23.66-0.34,35.22-2.71
		c2.16-0.44,4.3-0.93,6.44-1.48L667.59,363.72z M676,349.5c0,5.29-3.49,8.54-4.56,9.42c-1.75,0.74-3.82,1.13-5.71,1.68
		c-17.11,4.44-35.06,5.59-52.6,3.35c-9.79-1.24-19.44-3.52-28.75-6.78c-4.66-1.97-10.78-2.45-13.4-10.79
		c-1.17-4.67,0.71-8.47,2.01-10.4l1.68-0.52c2.8,1.02,5.79,2.02,8.64,2.88c0.83,0.45,1.39,1.4,2.15,1.96
		c1.42,1.25,3.04,2.3,4.81,2.96c2.72,1.06,5.77,1.01,8.52,0.06c0.75-0.17,1.44-0.74,2.21-0.7c6.43,1.17,12.94,1.97,19.47,2.38
		c12.56,0.76,25.19,0.07,37.59-2.08c4.48-0.77,8.93-1.74,13.33-2.87C675.87,343.55,676,348.9,676,349.5z M604.61,342.73
		c0.35,0.06,0.7,0.12,1.05,0.17C605.31,342.84,604.95,342.81,604.61,342.73z M677.32,335.94c-1.83,1.21-3.95,2.21-5.95,3.08
		c-20.8,5.45-42.44,6.7-63.66,3.68c-1.01-0.14-2.03-0.28-3.03-0.46c-0.85-0.21-1.17-1.29-0.42-1.93c0.21-0.17,0.42-0.34,0.63-0.52
		c1.75-1.45,3.27-3.18,4.58-5.03c2.16-3.13,3.74-6.71,4.41-10.46c0.27-1.5,0.37-2.98,0.34-4.58c0-0.31,0.12-0.6,0.35-0.81
		c0.57-0.55,1.42-0.18,2.14-0.22c5.91,0.38,11.83,0.56,17.77,0.56c12.16,0,24.34-0.77,36.41-2.32c1.2-0.14,2.42-0.31,3.61-0.49
		c1.06,0.01,2.38-0.78,3.2,0.09C682.72,322.68,681.43,331.41,677.32,335.94z"/>
	<g id="leaf">
		<path class="st11" d="M628.28,225.81c-0.68,1.48-1,3.09-1.12,4.73c-0.05,0.24-0.2,0.55-0.26,0.8c-2.14,6.15-5.76,11.9-10.71,16.17
			c-3.93,3.43-8.56,5.63-13.78,6.65c-3.18,0.62-6.65,0.78-10.18,0.48c-7.04-0.58-12.58-2.76-14.14-3.43
			c2.07-8.14,7.61-22.62,21.67-31.28C611.39,212.95,631.4,206.19,628.28,225.81z"/>
		<path class="st11" d="M676.02,266.07c-15.64,2.22-36.86-1.66-44.76-20.74c-1.68-3.78-2.86-7.84-3.12-12.01
			c-0.06-0.84-0.05-1.72,0.01-2.55c0.17-0.6,0.37-1.2,0.5-1.8c0.4-1.83,0.66-3.89,2.19-5.11c9.53-7.34,28.92,3.82,36.28,12.96
			C675.64,247.11,676.39,259.4,676.02,266.07z"/>
		<path d="M593.17,244.31c10.08-4.01,18.78-10.88,25.01-19.76c0.56-0.79-0.74-1.54-1.3-0.76c-5.98,8.53-14.43,15.22-24.11,19.07
			C591.88,243.21,592.27,244.66,593.17,244.31L593.17,244.31z"/>
		<path d="M662.75,253.89c-6.04-7.58-12.08-15.17-18.12-22.75c-0.6-0.75-1.66,0.31-1.06,1.06c6.04,7.58,12.08,15.17,18.12,22.75
			C662.29,255.71,663.35,254.64,662.75,253.89L662.75,253.89z"/>
	</g>
	<g id="hole">
		<path class="st12" d="M613.23,320.22c-0.01,7.07-3.42,13.9-8.67,18.55c-1.23,1.07-2.61,2.04-4.04,2.75
			c-1.77-0.33-3.57-0.7-5.3-1.09c-11.61-9.21-13.09-28.9-0.57-38.7c1.68-1.36,3.6-2.45,5.66-3.12c1.4,0.47,2.71,1.19,3.91,2.09
			C610.14,305.24,613.16,312.88,613.23,320.22z"/>
		<path class="st13" d="M598.9,342.22c-11.71,4.28-20.07-9.53-20.92-19.61c-1.05-8.46,3.01-17.25,10.1-21.96
			c3.05-2.07,6.86-3.2,10.53-2.49c-3.12,1.34-5.94,3.64-8.1,6.3c-9.43,10.33-6.26,29.08,4.2,36.83
			C596.04,341.72,597.51,341.91,598.9,342.22z"/>
	</g>
</g>
<g id="bee">
	<path class="st5" d="M148,470.11c0.88-6.05,1.75-12.1,2.63-18.15c1.57,0.62,3.28,0.19,4.15-0.96c1.16-1.53,0.43-3.79-0.97-4.89
		c-1.3-1.03-3.57-1.32-4.88,0.15c-1.19,1.33-1.09,3.55,0.37,4.89c-1.21,6.17-2.42,12.34-3.63,18.52c-1.26-0.09-2.51-0.18-3.76-0.27
		c-1.14-5.78-2.27-11.56-3.41-17.34c1.8-0.7,2.82-2.57,2.44-4.34c-0.43-2.06-2.64-3.38-4.66-2.83c-1.8,0.48-3.13,2.35-2.72,4.28
		c0.36,1.71,1.98,2.97,3.83,2.89c0.77,5.94,1.54,11.88,2.31,17.83c-8.21,1.41-13.2,9.41-11.37,16.44c0.01,0.02,0.01,0.05,0.02,0.07
		c-9.21,2.52-14.74,12.08-17.72,19.43c6.94-0.63,14.23,0.13,19.93,0.73c5.5,0.57,12.79,1.79,19.87,3.73
		c0.48-7.06-0.37-12.94-1.19-16.88c1.72-1.16,3.55-2.92,4.65-5.52C156.36,482.05,154.1,474.58,148,470.11z"/>
	<path class="st5" d="M106.84,521.81c-0.11,2.17-0.06,4.26,0.13,6.24c6.18-1.19,13.07-1.27,18.92-0.38c6.64,1,13.14,3.44,18.63,6.46
		c1.38-3.08,2.45-6.24,3.26-9.16c-6.4-4.56-13.87-8.66-22.78-8.64C118.01,516.35,111.95,518.89,106.84,521.81z"/>
	<path class="st5" d="M185.96,507.67c-1.75,0-3.22,1.08-3.64,2.55l-35.1,5.23l-0.22,2.44l36.09-4.62c0.69,0.74,1.71,1.21,2.87,1.21
		c2.09,0,3.78-1.53,3.78-3.41C189.74,509.19,188.05,507.67,185.96,507.67z"/>
	<path class="st14" d="M110.63,505.83c-1.84,4.58-2.7,8.3-2.85,8.95c-0.53,2.41-0.83,4.77-0.94,7.03
		c5.11-2.92,11.17-5.46,18.16-5.48c8.91-0.02,16.38,4.08,22.78,8.64c1.73-6.21,2.34-11.35,2.44-12.3c0.09-0.81,0.16-1.6,0.21-2.38
		c-7.08-1.94-14.37-3.16-19.87-3.73C124.86,505.96,117.57,505.2,110.63,505.83z"/>
	<path class="st14" d="M106.97,528.05c0.47,5.33,1.83,9.93,3.18,13.41c3.69-2.69,7.79-4.78,12.41-4.24c5.75,0.67,9.4,5.07,13,9.42
		c3.91-3.15,6.82-7.73,8.96-12.51c-5.49-3.02-11.99-5.46-18.63-6.46C120.04,526.78,113.15,526.86,106.97,528.05z"/>
	<g>
		<path class="st15" d="M122.36,588.35c-0.18,0.16-0.34,0.31-0.47,0.42c1.93,8.15,3.85,16.3,5.78,24.44
			c6.52-0.07,13.04-0.15,19.56-0.22c1.61-8.67,3.22-17.34,4.82-26.01c-4.23,1.96-9.32,3.45-14.6,3.68
			C132.2,590.89,126.74,589.88,122.36,588.35z"/>
		<path class="st16" d="M152.16,586.38c-0.09,0.52-0.02,0.09-0.11,0.61c-4.23,1.96-9.33,3.45-14.61,3.68
			c-5.24,0.22-10.7-0.79-15.08-2.32c2.07-1.82,7.59-6.07,15.75-6.46C145.11,581.55,150.11,585.17,152.16,586.38z"/>
	</g>
	<path class="st17" d="M122.56,588.56c-0.85,1.39,0.68,4.34,2.67,5.56c1.78,1.09,4.05,0.85,4.78,0.78c0.69-0.07,1.26-0.21,1.67-0.33
		c0.26,6.67,1.32,11.65,2.78,11.78c1.47,0.13,3.43-4.64,4.89-11.33c0.66,2.06,1.84,4.8,3.78,5.11c4.37,0.7,10.91-11.21,8.67-13.67
		c-1.42-1.55-4.95,2.17-13.11,2.89C129.57,590.13,123.87,586.39,122.56,588.56z"/>
	<path class="st5" d="M144.51,573.22c-0.02-0.01-0.04-0.02-0.05-0.04c1.2-0.57,2.03-1.69,2.03-3c0-1.14-0.63-2.14-1.58-2.76
		l13.21-15.54l-15.56-21.78l-2.67,5.11L155,550.56l-11.76,16.27c-0.18-0.02-0.35-0.05-0.53-0.05c-2.09,0-3.78,1.53-3.78,3.41
		c0,0.14,0.03,0.27,0.05,0.4c-1.68-0.38-3.41-0.43-5.07-0.11c-0.31,0.06-0.61,0.15-0.92,0.24c-0.46-1.42-1.89-2.46-3.61-2.46
		c-0.86,0-1.65,0.27-2.28,0.71l-8.76-7.75l2.85-10.63c3.1,0.42,5.57,0.1,7.38-0.37c2.63-0.69,4.96-1.94,7-3.58
		c-3.6-4.35-7.25-8.75-13-9.42c-4.62-0.54-8.72,1.55-12.41,4.24c0.79,2.03,1.57,3.67,2.18,4.87c-1.74,2.78-3.48,5.56-5.22,8.34
		c3.08-1.74,6.15-3.48,9.22-5.23c1.11,0.38,2.15,0.64,3.14,0.85l-3.58,10.93l9.87,9.5c-0.1,0.3-0.17,0.62-0.17,0.95
		c0,1.18,0.67,2.22,1.68,2.83c-3.07,3.49-4.72,8.63-3.95,13.38l1.97-2.32c-0.7-4.26,0.85-8.07,3.67-10.52
		c0.13,0.01,0.26,0.04,0.4,0.04c1.64,0,3.02-0.95,3.54-2.26c0.45-0.15,0.9-0.27,1.37-0.37c3.03-0.6,6.3,0.26,8.99,2.36
		c2.93,2.28,4.73,5.73,4.93,9.46l2,0.89C149.97,580.85,147.9,575.86,144.51,573.22z"/>
	<path class="st18" d="M135.52,510.04c8.43,10.71,49.46,4.62,56.89-18.37c2.7-8.35,1.68-21.13-5.33-24.89
		c-14.23-7.63-45.35,26.08-53.33,34.96C133.43,504.59,133.67,507.69,135.52,510.04z"/>
	<path class="st18" d="M124.11,498.56c-8.18-28.13-26.41-42.69-38.89-39.78c-8.74,2.04-15.74,12.9-15.11,22
		c1.25,18.17,33.02,31.44,48.44,22.67C121.22,501.93,123.01,499.98,124.11,498.56z"/>
</g>
<g id="minibee">
	<path class="st18" d="M440.12,467.24c-1.45-0.28-5.8-1.11-6.79,0.63c-0.98,1.71,1.71,5.18,3.97,7c4.92,3.97,11.47,3.1,13.84,2.66
		c0.19-0.41,0.41-1.03,0.42-1.79C451.58,471.65,445.21,468.22,440.12,467.24z"/>
	<g>
		<path class="st5" d="M447.44,474.67c-0.97,0.63-1.82,1.31-2.57,2.02c3.25,2.88,6.51,5.75,9.76,8.63c0.92-0.61,1.71-1.3,2.4-2.02
			c-3.04-2.97-6.09-5.94-9.13-8.92C447.76,474.48,447.6,474.57,447.44,474.67z"/>
		<path class="st5" d="M439.74,485.04c-2.42,2.7-3.5,4.18-3.26,4.44c0.23,0.25,1.64-0.57,4.24-2.48c0.76,0.26,3.85,1.25,7.67,0.71
			c-2.35-2.15-4.69-4.31-7.04-6.46C440.4,482.94,439.94,484.38,439.74,485.04z"/>
		<path class="st5" d="M465.44,464.94c-0.59-1.69,1.34-2.77,2.22-6.28c0.55-2.18,0.42-4.19,0.22-4.22
			c-0.19-0.03-0.53,1.77-1.33,4.56c-0.73,2.52-1.46,4.55-2,5.94c0.26-1.05,0.52-2.65,0.28-4.56c-0.4-3.2-2.02-5.67-2.28-5.57
			c-0.44,0.17,3.16,7.6,0.89,9.48c-1.26,1.05-3.28-0.5-4.74,0.59c-1.48,1.11-1.22,4.06-0.59,6.81c-0.82-0.02-2.3-0.01-4.11,0.34
			c2.14,2.01,4.28,4.02,6.42,6.04c0.97-2.33,1.21-4.23,1.24-4.52c1.96,0.51,4.01-0.18,5.17-1.72c1.02-1.36,1.21-3.2,0.61-4.56
			C466.83,465.88,465.84,466.09,465.44,464.94z"/>
		<path class="st14" d="M454.64,485.31c-0.48,0.32-0.99,0.63-1.53,0.91c-1.62,0.82-3.23,1.27-4.72,1.48
			c-2.35-2.15-4.7-4.31-7.04-6.46c0.79-1.43,1.92-3.05,3.52-4.56C448.13,479.56,451.38,482.43,454.64,485.31z"/>
		<path class="st14" d="M460.42,478.07c-0.69,1.67-1.76,3.54-3.38,5.22L460.42,478.07z"/>
		<path class="st14" d="M460.42,478.07c-0.69,1.67-1.76,3.54-3.38,5.22c-3.04-2.97-6.09-5.94-9.13-8.91c2.16-1.31,4.29-2,6.09-2.34
			L460.42,478.07z"/>
	</g>
	<path class="st18" d="M444.78,462.44c-1.36-0.57-5.45-2.28-6.78-0.78c-1.31,1.48,0.61,5.42,2.44,7.67c4,4.89,10.59,5.39,13,5.44
		c0.27-0.36,0.62-0.92,0.78-1.67C455.09,469.11,449.55,464.44,444.78,462.44z"/>
</g>
<g id="minibee_1_">
	<path class="st18" d="M736.25,333.35c1.02-0.23,4.06-0.92,4.76,0.52c0.68,1.41-1.2,4.28-2.78,5.78c-3.44,3.28-8.03,2.56-9.69,2.2
		c-0.13-0.34-0.29-0.85-0.29-1.48C728.22,336.99,732.68,334.15,736.25,333.35z"/>
	<g>
		<path class="st5" d="M731.12,339.48c0.68,0.52,1.27,1.08,1.8,1.67c-2.28,2.37-4.56,4.75-6.84,7.12c-0.64-0.51-1.2-1.07-1.68-1.67
			c2.13-2.45,4.26-4.91,6.39-7.36C730.9,339.32,731.01,339.39,731.12,339.48z"/>
		<path class="st5" d="M736.51,348.04c1.69,2.23,2.45,3.45,2.28,3.67c-0.16,0.21-1.15-0.47-2.97-2.05c-0.53,0.22-2.7,1.03-5.37,0.58
			c1.64-1.78,3.29-3.56,4.93-5.34C736.05,346.31,736.38,347.5,736.51,348.04z"/>
		<path class="st5" d="M718.51,331.45c0.41-1.39-0.94-2.29-1.56-5.18c-0.38-1.8-0.29-3.46-0.16-3.49c0.13-0.02,0.37,1.47,0.93,3.76
			c0.51,2.08,1.02,3.76,1.4,4.91c-0.18-0.87-0.36-2.19-0.19-3.76c0.28-2.65,1.41-4.69,1.6-4.6c0.31,0.14-2.21,6.27-0.62,7.83
			c0.88,0.87,2.3-0.41,3.32,0.49c1.04,0.91,0.85,3.35,0.42,5.63c0.58-0.02,1.61-0.01,2.88,0.28c-1.5,1.66-3,3.32-4.5,4.98
			c-0.68-1.92-0.85-3.49-0.87-3.73c-1.37,0.42-2.81-0.15-3.62-1.42c-0.71-1.12-0.85-2.65-0.43-3.76
			C717.54,332.22,718.23,332.39,718.51,331.45z"/>
		<path class="st14" d="M726.08,348.27c0.34,0.26,0.69,0.52,1.07,0.75c1.13,0.68,2.26,1.05,3.31,1.22c1.65-1.78,3.29-3.56,4.93-5.33
			c-0.55-1.18-1.34-2.52-2.47-3.77C730.63,343.52,728.36,345.89,726.08,348.27z"/>
		<path class="st14" d="M724.39,346.6c-1.13-1.39-1.88-2.93-2.37-4.31L724.39,346.6z"/>
		<path class="st14" d="M722.03,342.29c0.48,1.38,1.23,2.92,2.37,4.31c2.13-2.45,4.27-4.91,6.39-7.36c-1.51-1.08-3-1.65-4.27-1.93
			L722.03,342.29z"/>
	</g>
	<path class="st18" d="M732.99,329.38c0.96-0.47,3.82-1.88,4.75-0.64c0.92,1.22-0.43,4.47-1.71,6.33c-2.8,4.04-7.41,4.45-9.11,4.5
		c-0.19-0.3-0.43-0.76-0.54-1.38C725.76,334.89,729.64,331.04,732.99,329.38z"/>
</g>
</svg>
