<?xml version="1.0" encoding="utf-8"?>
<!-- Generator: Adobe Illustrator 24.1.2, SVG Export Plug-In . SVG Version: 6.00 Build 0)  -->
<svg version="1.1" xmlns="http://www.w3.org/2000/svg" xmlns:xlink="http://www.w3.org/1999/xlink" x="0px" y="0px"
	 viewBox="0 0 541.7 578" style="enable-background:new 0 0 541.7 578;" xml:space="preserve">
<style type="text/css">
	.st0{fill:#39B54A;stroke:#000000;stroke-miterlimit:10;}
	.st1{fill:#FFFFFF;stroke:#000000;stroke-miterlimit:10;}
	.st2{fill:#FCEE21;stroke:#000000;stroke-miterlimit:10;}
	.st3{fill:#E6E6E6;stroke:#000000;stroke-miterlimit:10;}
	.st4{stroke:#000000;stroke-miterlimit:10;}
	.st5{fill:#FFFFFF;}
	.st6{fill:#477484;stroke:#000000;stroke-miterlimit:10;}
	.st7{fill:#32586B;stroke:#000000;stroke-miterlimit:10;}
</style>
<g id="Layer_2">
	<path class="st0" d="M489.5,577.5c9,0,18,0,27,0c-2.94-24.85-11.47-68.1-40-113c-40.67-64.02-97.38-92.67-121-103
		c-7.67,6.33-15.33,12.67-23,19c23.51,9.31,91.5,39.87,131,114C480.24,525.92,486.82,555.7,489.5,577.5z"/>
	<path class="st1" d="M184,428c-6.59,16.67-27.22,69.12-2,96c23.85,25.42,83.43,20.42,102-7c21.74-32.11-28.22-72.13-19-154
		c4.73-42.01,24.61-72.72,20-75c-3.54-1.75-14.48,16.55-42,55C199.44,403.86,192.91,405.43,184,428z"/>
	<path class="st1" d="M128,527c12.02,14.78,34.91,26.33,47,19c17.12-10.38-9.1-45.5,6-96c15.18-50.76,67.83-102.81,70.42-105.34
		c7.44-7.25,19.99-18.68,17.58-22.66c-3.49-5.75-35.7,8.01-38,9c-15.99,6.9-79.27,34.21-104,103
		C120.47,452.16,104.12,497.63,128,527z"/>
	<path class="st1" d="M281,290c-26.33,5.8-29.59,82.42-27.24,119.5c2.34,36.89,4.82,77.79,32.97,90.18
		c27.21,11.97,67.98-5.04,79.27-32.68c5.84-14.32,2.43-28.3,0-37C353.01,383.47,312.6,283.04,281,290z"/>
	<path class="st1" d="M276,288c-9.77,12.24,14.04,45.52,43,86c35.85,50.11,53.85,75.84,76,73c26.6-3.41,50.19-38.65,47.37-68.32
		c-3.2-33.72-40.85-51.45-83.37-71.68C341.52,298.69,287.85,273.16,276,288z"/>
	<path class="st1" d="M283,287c0.2,8.41,26.97,7.86,96,28c70.8,20.65,89.15,34.79,113.49,23.34c24.52-11.53,42.24-42.96,34.51-61.34
		c-10.45-24.84-65.84-22.23-113-20C356.85,259.7,282.67,272.98,283,287z"/>
	<path class="st1" d="M275,300c2.59-5.86-4.32-13.79-9.39-20.32c-22.48-29-19.36-43.86-28.61-45.68c-22.02-4.33-65.85,75.16-50,91
		c10.14,10.13,38.37-12.05,77-19C266.54,305.54,273.04,304.45,275,300z"/>
	<path class="st1" d="M292,291c-0.57-1.07-3.44-4.05-43.47,7.59c-24.52,7.13-44.46,12.93-57.53,19.41
		c-56.03,27.8-84.03,117.01-71,126c11.06,7.63,43.94-47.87,141.54-122.47C271.6,313.84,294.86,296.38,292,291z"/>
	<path class="st1" d="M290,302c4.7-2.86-1.09-15.54-4.51-38.03c-7.14-46.98,6.32-69.33-2.49-73.97c-12.26-6.46-54.33,28.45-49,57
		c1.43,7.68,7.2,13.98,18.73,26.56C260.43,281.96,282.8,306.38,290,302z"/>
	<path class="st1" d="M285,295c5.9,0.02,7.89-16.93,18.14-47.49c20.58-61.33,43.51-85.25,35.86-92.51c-7-6.64-33.41,6.51-49,24
		c-19.58,21.96-20.02,48.44-20.23,61.35C269.35,265.85,277.27,294.98,285,295z"/>
	<path class="st1" d="M285.66,294.73c5.7,2.37,16.92-33.27,57.34-81.73c37.56-45.02,67.77-62.06,62-76c-4.12-9.95-24.29-12.78-39-9
		c-10.68,2.74-27.41,11.27-52,67C295.59,236.73,278.58,291.78,285.66,294.73z"/>
	<path class="st1" d="M279,284c2.01,5.91,50.14-17.02,140-27c58.24-6.47,93.74-3.02,108-27c7.8-13.11,8.49-33.16-1-42
		c-13.59-12.66-43.58,1.82-115,34C302.16,271.04,277.59,279.85,279,284z"/>
	<path class="st1" d="M283,294c3.56,3.38,36.84-34.02,88-72c84.71-62.89,157.59-82.19,153-103c-1.58-7.17-11.45-10.47-19-13
		c-56.1-18.79-122.47,46.43-129,53c-15.36,15.45-6.86,11.54-67,95C290.56,279.6,281.01,292.11,283,294z"/>
	<path class="st1" d="M300,291c6.13,8.33,71.15-61.75,177-97c18.06-6.01,60.71-18.8,64-43c0.16-1.21,1.21-9.82-4-16
		c-15.22-18.06-67.31,4.15-74,7c-26.95,11.49-44.5,26.16-93,74C321.64,263.7,297.51,287.62,300,291z"/>
	<path class="st2" d="M315.07,307.5c-26.13,31.51-69.67,54.92-81.61,44.14c-10.64-9.6,4.11-46.01,22.46-69.25
		c27.03-34.22,74.14-55.41,85.61-44C351.82,248.62,333.55,285.21,315.07,307.5z"/>
</g>
<g id="Layer_3">
	<path class="st3" d="M168.5,183.5c20.58,2.91,42.23,5.86,46.61,18.76c1,2.95,0.86,5.71,0.58,7.59
		c-13.83,4.46-35.33,10.71-62.19,15.65c-43.29,7.97-108.38,19.95-126-7c-4.55-6.97-6.07-16.74-3.02-24.27
		c1.63-4.04,7.22-13.95,39.02-19.73C85.47,170.5,94.68,173.08,168.5,183.5z"/>
	<path class="st4" d="M230.5,394.5c-9.92,17.42-14.7,21.82-17,21c-2.84-1.02-4.21-10.81,1-17c3.64-4.32,8.79-4.9,10-5
		c-4.34-2.94-9.68-7.16-15-13c-5.62-6.17-9.44-12.22-12-17c2-0.67,4-1.33,6-2c2.1,4.45,5,9.63,9,15
		C218.66,384.77,225.26,390.59,230.5,394.5z"/>
	<path class="st4" d="M243.5,239.5c23,7.33,46,14.67,69,22c-2.67,2.67-5.33,5.33-8,8c-21-8-42-16-63-24
		C242.17,243.5,242.83,241.5,243.5,239.5z"/>
	<g>
		<path class="st4" d="M144.08,218.23c-8.12,7.75-15.91,17.07-22.58,28.27c-0.09,0.15-0.17,0.3-0.26,0.46
			c20.17,5.39,41.71,12.11,64.26,20.54c20.07,7.51,38.61,15.5,55.6,23.59c2.45-9.91,4.76-21,6.66-33.24
			c-17.09-7.62-35.16-15.13-54.25-22.36C176.59,229.1,160.1,223.37,144.08,218.23z"/>
		<path class="st4" d="M107.36,279.75c-3.48,12.58-5.18,25.68-5.15,38.93c16.39,8.08,34.83,15.93,55.29,22.82
			c20.92,7.05,40.64,11.96,58.59,15.41c5.15-8.16,10.04-18.32,15.19-32.9c-19.61-4.41-41.06-10.37-63.78-18.51
			C145.19,297.51,125.13,288.67,107.36,279.75z"/>
		<path class="st4" d="M107.46,358.52c4.35,16.55,11.37,32.78,21.04,47.98c0.67,13.67,1.33,27.33,2,41c7.67-13.33,15.33-26.67,23-40
			c9.44-3.81,22.96-10.35,36.5-21.41c-15.53-3.71-32.12-8.47-49.5-14.59C128.85,367.4,117.84,363.03,107.46,358.52z"/>
		<path class="st4" d="M305.5,38.5c-4.82-7.32-17.12-8.93-21-4c-2.79,3.55-0.55,9.61,0,11c-5.39,9.44-11.22,21.49-16,36
			c-5.41,16.43-7.88,31.23-9,43c-5.33-1.01-11.37-1.77-18-2c-2.78-0.09-5.46-0.09-8,0c-0.16-8.02,0.39-18.33,3-30
			c3.25-14.54,8.53-26.01,13-34c4.46,1.8,9.3,0.94,12-2c4.11-4.47,2.43-12.82-3-16c-3.85-2.26-9.67-1.98-13,2
			c-3.29,3.93-2.98,10.12,1,14c-4.14,7.9-8.56,17.96-12,30c-4.2,14.71-5.64,27.82-6,38c-2.49,0.61-17.88,4.67-26,20
			c-10.04,18.96,0.28,37.75,1,39c-5.89,1.85-17.85,5.98-31.57,13.93c12.51,4.13,25.39,8.79,38.57,14.07
			c14.36,5.75,27.9,11.77,40.62,17.89c0.73-8.85,1.22-18.15,1.38-27.89c23.28-1.01,40.62-19.97,40-40c-0.5-16.13-12.6-31.08-30-36
			c1.35-12.52,4.35-28.46,11-46c4.31-11.35,9.26-21.03,14-29c4.13,6.42,11.49,8.47,16,6C309.15,53.4,309.06,43.92,305.5,38.5z"/>
		<path class="st2" d="M251.12,229.39c-0.83,10.08-1.99,19.57-3.37,28.47c-17.09-7.62-35.16-15.13-54.25-22.36
			c-16.91-6.4-33.4-12.13-49.42-17.27c9.26-8.84,18.93-15.63,27.85-20.8c12.52,4.13,25.4,8.79,38.57,14.07
			C224.86,217.25,238.4,223.27,251.12,229.39z"/>
		<path class="st2" d="M241.1,291.09c-2.48,10.03-5.11,18.85-7.6,26.41c-0.75,2.27-1.49,4.43-2.22,6.51
			c-19.61-4.41-41.06-10.37-63.78-18.51c-22.31-7.99-42.37-16.83-60.14-25.75c3.16-11.44,7.78-22.46,13.88-32.79
			c20.17,5.38,41.71,12.11,64.26,20.54C205.57,275.01,224.11,283,241.1,291.09z"/>
		<path class="st2" d="M216.09,356.91c-2.46,3.9-4.97,7.34-7.59,10.59c-5.9,7.3-12.2,13.43-18.5,18.59
			c-15.54-3.72-32.13-8.47-49.5-14.59c-11.65-4.1-22.66-8.47-33.04-12.98c-3.47-13.2-5.23-26.59-5.25-39.84
			c16.39,8.08,34.83,15.93,55.29,22.82C178.42,348.55,198.14,353.46,216.09,356.91z"/>
	</g>
	
		<ellipse transform="matrix(0.9475 -0.3197 0.3197 0.9475 -33.2212 95.0267)" class="st5" cx="272.86" cy="148.71" rx="6.6" ry="10.5"/>
	<circle cx="277.5" cy="152.5" r="1.5"/>
	<path class="st3" d="M212,198c0.93,0.08,4.93,0.55,8,4c2.49,2.79,2.9,5.92,3,7c-9.59,11.29-24.38,26.85-45,42
		c-47.4,34.83-120.51,63.77-140,42c-10.4-11.61-2.15-33.88-1-37c14.31-38.63,68.44-48.85,101-55
		C155.22,197.75,180.62,194.82,212,198z"/>
	<path class="st4" d="M292.5,396.5c-5.79,3.69-8.92,10.36-8,17c1.14,8.27,8.36,15.19,12,14c3.25-1.06,5.17-9.12,2-35
		c-9.16-2.9-21.93-8.16-35-18c-8.13-6.12-14.36-12.49-19-18c-3.99-9.42-8.07-21.18-11-35c-2.53-11.96-3.63-22.8-4-32
		c-2.67-0.33-5.33-0.67-8-1c0.31,10.15,1.55,22.81,5,37c3.32,13.63,7.79,25.05,12,34c4.78,6.18,12.22,14.42,23,22
		C273.34,389.83,284.64,394.17,292.5,396.5z"/>
	<g>
		<path class="st6" d="M337.5,280.5c-18.5-2.29-32.43-11.52-41.93-20.48c3.98,29.16,7.95,58.32,11.93,87.48
			c4.05,3.56,15.24,12.4,32,14c24.29,2.31,41.15-12.43,44-15c3.88-27.84,7.77-55.67,11.65-83.51
			C378.67,276.41,357.95,283.03,337.5,280.5z"/>
		<path class="st7" d="M395.5,260.5c-0.12,0.83-0.23,1.66-0.35,2.49c-16.48,13.42-37.2,20.04-57.65,17.51
			c-18.5-2.29-32.43-11.52-41.93-20.48c-0.02-0.17-0.05-0.35-0.07-0.52c6.46-4.35,26.83-16.83,55-15
			C372.94,245.96,388.78,255.76,395.5,260.5z"/>
	</g>
	<path class="st4" d="M393.5,263.5c-0.37-24.75-16.21-45.31-36-50c-25.47-6.03-56.26,14.5-60,48c-0.67-0.67-1.33-1.33-2-2
		c4.15-35.23,36.58-56.5,63-50c20.35,5.01,36.57,26.35,37,52C394.83,262.17,394.17,262.83,393.5,263.5z"/>
	<path class="st4" d="M347.5,217.5c-3.29-4.51-4.16-10.01-2-14c3.63-6.71,15.24-8.03,21-2c4.41,4.62,5.07,13.23,0,18
		c-3.5,3.3-9.03,4.09-14,2c-5.23,3.64-12.55,9.69-19,19c-9.65,13.94-12.2,27.76-13,35c-10.81,1.14-24.43,1.65-40,0
		c-16.46-1.74-30.32-5.38-41-9c0-3.33,0-6.67,0-10c12.88,2.18,26.22,4.2,40,6c11.96,1.57,23.63,2.89,35,4c2.85-7.2,6.98-15.85,13-25
		C334.27,231.2,341.45,223.29,347.5,217.5z"/>
</g>
</svg>
